<?xml version="1.0" standalone="yes"?>
<svg width="211" height="66">
<path style="fill:#ffffff; stroke:none;" d="M0 0L0 66L12 66L12 2L22 2C17.8617 9.95118 16.3885 22.088 16 31L22 31C22.5431 18.3841 30.8595 18.3983 31 31L37 31C35.7982 25.952 35.5595 20.998 34 16C41.6165 13.2608 40.1163 7.32906 36 2L45 2C44.4123 9.43645 39.3195 20.9133 43.3179 27.8519C46.4521 33.2907 56.9847 31.5239 60.7361 27.7716C66.3584 22.148 67.3788 9.60575 68 2L77 2C69.8706 10.1567 71.7607 18.4209 83 21C81.0541 27.4071 75.1877 25.4454 71 22L70 22C69.7593 23.9022 67.9866 27.7893 69.1566 29.4861C72.1891 33.8839 84.6169 30.8103 86.821 26.8912C89.47 22.181 86.726 17.4149 85 13C72.4816 12.7925 89.6672 6.26801 90 2L95 2L95 7C107.065 7.92301 97.7175 28.193 95 35C98.7451 33.4158 101.592 32.4345 105 35L106 35C102.748 24.5546 103.77 7.04674 117 7L117 2L148 2C145.605 5.38908 142.278 8.02097 141 12C128.248 13.1487 131 24.0644 131 34C136.577 32.7372 139.546 34.0446 140 40L142 40C142.816 29.3048 162.417 30.6466 167 38C176.569 34.1212 183.367 29.6682 191 40L192 40L192 37L196 37L196 66L211 66L211 0L0 0z"/>
<path style="fill:#010101; stroke:none;" d="M12 2L12 66L81 66C76.4457 59.685 61.2455 63.725 54 62L54 60C64.191 56.4521 72.074 56 83 56C86.3651 46.825 92.4251 39.0028 95.9506 29.9853C98.3478 23.854 98.4643 16.4294 100 10C93.7844 9.79743 92.9935 7.80224 94 2C90.0485 2.84674 91.5459 6.23512 88.75 8.66666C86.4867 10.6351 82.7787 10 80 10L80 12C82.6531 12.4213 84.1426 12.9835 85.9823 15.0586C98.0422 28.6617 72.4232 39.5595 68.2724 29.8519C67.2449 27.449 68.1669 23.6256 68 21L81 24C78.3987 19.7122 72.1912 17.9576 70.6574 12.9853C69.6339 9.66722 71.7822 5.42636 72 2C63.3173 8.39432 69.0959 24.6132 58.3341 31.392C42.3779 41.4426 36.331 17.1206 44 7L43 2L38 2C41.1015 8.11103 42.0228 12.4116 36 17L39 32C26.6473 34.8976 32.4539 24.3547 25 20C23.9917 27.9196 21.9883 34.1084 13 32C17.8322 22.7157 15.9722 11.503 20 2L12 2z"/>
<path style="fill:#383838; stroke:none;" d="M20 2L19 4C20.2627 3.02866 20.3919 3.30626 20 2z"/>
<path style="fill:#e6e6e6; stroke:none;" d="M21.3333 2.66667C21.2778 2.72221 21.2222 3.77779 21.6667 3.33333C21.7222 3.27776 21.7778 2.22224 21.3333 2.66667z"/>
<path style="fill:#d8d8d8; stroke:none;" d="M36.3333 2.66667C36.2778 2.72223 36.2222 3.77777 36.6667 3.33333C36.7222 3.27779 36.7778 2.22221 36.3333 2.66667z"/>
<path style="fill:#383838; stroke:none;" d="M37 2C37.5451 3.63517 37.3648 3.45494 39 4C38.4549 2.36484 38.6352 2.54506 37 2z"/>
<path style="fill:#1b1b1b; stroke:none;" d="M43 2L43 5L44 5C43.7488 3.54841 43.6848 3.24836 43 2z"/>
<path style="fill:#a7a7a7; stroke:none;" d="M44 2L44 7L45 7C44.9124 5.03594 44.7789 3.76904 44 2z"/>
<path style="fill:#474747; stroke:none;" d="M51 2L51 10L52 10C51.9928 7.16452 52.0977 4.6127 51 2z"/>
<path style="fill:#010101; stroke:none;" d="M52 2C51.9182 9.41365 44.7993 21.8486 53 26C55.1576 21.7494 57.2663 15.5998 60 12C59.3755 8.63676 59.0283 5.4218 59 2L52 2z"/>
<path style="fill:#1b1b1b; stroke:none;" d="M59 2L59 10L60 10C59.9928 7.16452 60.0977 4.6127 59 2z"/>
<path style="fill:#878787; stroke:none;" d="M60 2L60 7L61 7C60.9124 5.03594 60.7789 3.76904 60 2z"/>
<path style="fill:#d8d8d8; stroke:none;" d="M68 2L68 5L69 5C68.7488 3.54841 68.6848 3.24836 68 2z"/>
<path style="fill:#474747; stroke:none;" d="M69 2L69 5L70 5C69.7488 3.54841 69.6848 3.24836 69 2z"/>
<path style="fill:#383838; stroke:none;" d="M72 2L72 7L73 7C72.9124 5.03594 72.7789 3.76904 72 2z"/>
<path style="fill:#b7b7b7; stroke:none;" d="M73 2L73 6L74 6C73.8259 4.3148 73.683 3.50603 73 2z"/>
<path style="fill:#686868; stroke:none;" d="M74 2L75 3L74 2z"/>
<path style="fill:#010101; stroke:none;" d="M75 2L76 3L75 2z"/>
<path style="fill:#a7a7a7; stroke:none;" d="M76.3333 2.66667C76.2778 2.72224 76.2222 3.77778 76.6667 3.33333C76.7222 3.27781 76.7778 2.22222 76.3333 2.66667z"/>
<path style="fill:#878787; stroke:none;" d="M90 2L90 6L91 6C90.8259 4.31479 90.683 3.50604 90 2z"/>
<path style="fill:#a7a7a7; stroke:none;" d="M94 2L94 5L95 5C94.7488 3.54841 94.6848 3.24836 94 2z"/>
<path style="fill:#686868; stroke:none;" d="M117 2L117 7L118 7C117.912 5.03594 117.779 3.76904 117 2z"/>
<path style="fill:#010101; stroke:none;" d="M118 2C117.79 8.44337 115.183 9.92692 109 10L105 32C109.896 36.6714 109 42.7042 109 49L110 49C110.676 40.4391 109.65 30.2246 115.805 23.5185C117.694 21.46 123.181 15.9158 125.972 19.4475C131.35 26.2516 122.168 44.8435 122 53L126 53C127.047 39.7338 129 27.4642 129 14C136.17 13.0447 143.49 8.32351 147 2L118 2z"/>
<path style="fill:#595959; stroke:none;" d="M147 2L148 3L147 2M167 2L167 35L168 35C168 25.3992 170.711 10.8444 167 2z"/>
<path style="fill:#010101; stroke:none;" d="M168 2L168 35L169 35C169 25.3992 171.711 10.8444 168 2z"/>
<path style="fill:#a7a7a7; stroke:none;" d="M169 2L169 35L170 35C170 25.3991 172.711 10.8444 169 2z"/>
<path style="fill:#777777; stroke:none;" d="M20 3L21 4L20 3M37 3L38 4L37 3z"/>
<path style="fill:#989898; stroke:none;" d="M74 3L75 4L74 3z"/>
<path style="fill:#595959; stroke:none;" d="M75 3L76 4L75 3z"/>
<path style="fill:#474747; stroke:none;" d="M146 3L147 4L146 3z"/>
<path style="fill:#878787; stroke:none;" d="M147 3L148 4L147 3z"/>
<path style="fill:#1b1b1b; stroke:none;" d="M18 4L18 12L19 12C18.9928 9.1645 19.0977 6.61271 18 4z"/>
<path style="fill:#989898; stroke:none;" d="M19 4L19 12L20 12C19.9928 9.1645 20.0977 6.61271 19 4M38 4L39 5L38 4z"/>
<path style="fill:#b7b7b7; stroke:none;" d="M146 4L147 5L146 4z"/>
<path style="fill:#878787; stroke:none;" d="M39 5L40 6L39 5z"/>
<path style="fill:#383838; stroke:none;" d="M40 5L41 6L40 5z"/>
<path style="fill:#c8c8c8; stroke:none;" d="M50 5L50 9L51 9C50.8259 7.3148 50.683 6.50604 50 5z"/>
<path style="fill:#989898; stroke:none;" d="M68 5L69 6L68 5z"/>
<path style="fill:#595959; stroke:none;" d="M93 5L94 6L93 5z"/>
<path style="fill:#c8c8c8; stroke:none;" d="M94 5C94.7962 8.71585 97.6373 8 101 8L101 7C98.2623 6.82113 96.394 6.33916 94 5z"/>
<path style="fill:#474747; stroke:none;" d="M144 5L145 6L144 5z"/>
<path style="fill:#989898; stroke:none;" d="M145 5L146 6L145 5z"/>
<path style="fill:#d8d8d8; stroke:none;" d="M26 6L26 7L30 7C28.4939 6.31696 27.6852 6.17411 26 6z"/>
<path style="fill:#777777; stroke:none;" d="M40 6L40 12L41 12C40.9528 9.74719 40.8742 8.05209 40 6z"/>
<path style="fill:#c8c8c8; stroke:none;" d="M67 6L68 7L67 6z"/>
<path style="fill:#686868; stroke:none;" d="M68 6L69 7L68 6z"/>
<path style="fill:#595959; stroke:none;" d="M90 6L91 7L90 6z"/>
<path style="fill:#383838; stroke:none;" d="M92 6L92 9L93 9C92.7488 7.5484 92.6848 7.24837 92 6z"/>
<path style="fill:#989898; stroke:none;" d="M93.3333 6.66667C93.2778 6.72224 93.2222 7.77777 93.6667 7.33333C93.7222 7.2778 93.7778 6.22222 93.3333 6.66667z"/>
<path style="fill:#b7b7b7; stroke:none;" d="M144 6L145 7L144 6z"/>
<path style="fill:#989898; stroke:none;" d="M26 7L27 8L26 7z"/>
<path style="fill:#595959; stroke:none;" d="M26 12L27 12L27 8L31 8C27.5722 6.87561 26.535 8.77983 26 12z"/>
<path style="fill:#989898; stroke:none;" d="M31 7L33 11L34 11C33.0643 9.05145 32.6076 8.44979 31 7z"/>
<path style="fill:#383838; stroke:none;" d="M42 7L43 8L42 7z"/>
<path style="fill:#878787; stroke:none;" d="M43 7L44 8L43 7z"/>
<path style="fill:#989898; stroke:none;" d="M60 7L60 12L61 12C60.9124 10.0359 60.7789 8.76905 60 7z"/>
<path style="fill:#595959; stroke:none;" d="M67 7L67 16L68 16C67.9983 12.8741 68.2129 9.88969 67 7z"/>
<path style="fill:#777777; stroke:none;" d="M71 7L72 8L71 7z"/>
<path style="fill:#c8c8c8; stroke:none;" d="M72 7L73 8L72 7M80 7L80 8L89 9C86.1113 7.26907 83.3387 7.07081 80 7z"/>
<path style="fill:#989898; stroke:none;" d="M89 7L90 8L89 7z"/>
<path style="fill:#c8c8c8; stroke:none;" d="M108 9C110.709 8.35214 113.216 8.05835 116 8C113.08 6.77667 110.163 6.52423 108 9z"/>
<path style="fill:#878787; stroke:none;" d="M116 7L117 8L116 7z"/>
<path style="fill:#1b1b1b; stroke:none;" d="M117 7C114.22 8.49035 112.152 8.9109 109 9L109 10C111.732 9.99815 117.632 10.8357 117 7z"/>
<path style="fill:#474747; stroke:none;" d="M142 7L143 8L142 7z"/>
<path style="fill:#a7a7a7; stroke:none;" d="M143 7L144 8L143 7z"/>
<path style="fill:#e6e6e6; stroke:none;" d="M25 8L25 11L26 11C25.7488 9.54841 25.6848 9.24836 25 8z"/>
<path style="fill:#010101; stroke:none;" d="M27 8L27 13L33 11L33 9C30.8941 8.35621 29.2049 8.09414 27 8z"/>
<path style="fill:#686868; stroke:none;" d="M42 8L42 13L43 13C42.9124 11.0359 42.7789 9.76904 42 8z"/>
<path style="fill:#e6e6e6; stroke:none;" d="M43 8L43 13L44 13C43.9124 11.0359 43.7789 9.76904 43 8z"/>
<path style="fill:#383838; stroke:none;" d="M70 8L70 15L71 15C70.9813 12.4567 70.9845 10.3316 70 8z"/>
<path style="fill:#c8c8c8; stroke:none;" d="M71 8L71 14L72 14C71.9528 11.7472 71.8743 10.0521 71 8z"/>
<path style="fill:#878787; stroke:none;" d="M78 11L79 11C79.5451 9.36484 79.3648 9.54506 81 9C79.0071 8.30101 78.8473 9.00571 78 11z"/>
<path style="fill:#686868; stroke:none;" d="M81 8L81 9L86 9C84.231 8.22107 82.9641 8.08759 81 8z"/>
<path style="fill:#474747; stroke:none;" d="M89 8L90 9L89 8z"/>
<path style="fill:#686868; stroke:none;" d="M93 8L93 9L101 9C98.3873 7.90229 95.8355 8.00722 93 8z"/>
<path style="fill:#989898; stroke:none;" d="M101 8L101 11L102 11C101.749 9.54843 101.685 9.24835 101 8z"/>
<path style="fill:#d8d8d8; stroke:none;" d="M107 8L107 14L108 14C107.953 11.7472 107.874 10.0521 107 8z"/>
<path style="fill:#686868; stroke:none;" d="M109 8L109 9L116 9C113.668 8.01547 111.543 8.01875 109 8z"/>
<path style="fill:#a7a7a7; stroke:none;" d="M142 8L143 9L142 8z"/>
<path style="fill:#989898; stroke:none;" d="M50 9L51 10L50 9z"/>
<path style="fill:#1b1b1b; stroke:none;" d="M79 11C81.3772 10.428 83.558 10.1095 86 10C83.266 8.85989 81.0026 8.70683 79 11z"/>
<path style="fill:#383838; stroke:none;" d="M86 9L86 10L89 10C87.7516 9.31519 87.4516 9.25121 86 9z"/>
<path style="fill:#1b1b1b; stroke:none;" d="M93 9L93 10C95.7845 10.0583 98.2908 10.3521 101 11C98.896 8.59109 96.0941 9.01028 93 9z"/>
<path style="fill:#595959; stroke:none;" d="M108 9L108 14L109 14C108.912 12.0359 108.779 10.769 108 9z"/>
<path style="fill:#474747; stroke:none;" d="M140 9C138.521 9.98567 138.797 10 137 10L137 11L141 10L140 9z"/>
<path style="fill:#b7b7b7; stroke:none;" d="M49 10L50 11L49 10z"/>
<path style="fill:#595959; stroke:none;" d="M50 10L51 11L50 10z"/>
<path style="fill:#d8d8d8; stroke:none;" d="M66 10L66 13L67 13C66.7488 11.5484 66.6848 11.2483 66 10z"/>
<path style="fill:#a7a7a7; stroke:none;" d="M140 10L141 11L140 10z"/>
<path style="fill:#b7b7b7; stroke:none;" d="M25 11L25 15L26 15C25.8259 13.3148 25.683 12.506 25 11z"/>
<path style="fill:#777777; stroke:none;" d="M32 11L33 12L32 11z"/>
<path style="fill:#686868; stroke:none;" d="M49 11C48.9738 14.1217 48.7243 16.9605 48 20L49 20C49.9424 16.8083 50.3009 14.1051 49 11M79 11L79 12C81.1059 12.6438 82.7951 12.9059 85 13L85 12L79 11M99 11L99 19L100 19C99.9928 16.1645 100.098 13.6127 99 11z"/>
<path style="fill:#a7a7a7; stroke:none;" d="M100 11L101 12L100 11M137 11L138 12L137 11z"/>
<path style="fill:#e6e6e6; stroke:none;" d="M138 11L138 12L141 12C139.752 11.3152 139.452 11.2512 138 11z"/>
<path style="fill:#272727; stroke:none;" d="M17 12L18 13L17 12z"/>
<path style="fill:#686868; stroke:none;" d="M18 12L19 13L18 12z"/>
<path style="fill:#272727; stroke:none;" d="M26 12L26 14L28 14C27.4549 12.3648 27.6352 12.5451 26 12z"/>
<path style="fill:#686868; stroke:none;" d="M28 12L28 13L32 13C30.4939 12.317 29.6852 12.1741 28 12z"/>
<path style="fill:#c8c8c8; stroke:none;" d="M39 12L40 13L39 12z"/>
<path style="fill:#272727; stroke:none;" d="M40.3333 12.6667C40.2778 12.7222 40.2222 13.7778 40.6667 13.3333C40.7222 13.2778 40.7778 12.2222 40.3333 12.6667M58 12L59 13L58 12z"/>
<path style="fill:#686868; stroke:none;" d="M59 12L60 13L59 12z"/>
<path style="fill:#c8c8c8; stroke:none;" d="M60 12L61 13L60 12z"/>
<path style="fill:#b7b7b7; stroke:none;" d="M79 12L80 13L79 12z"/>
<path style="fill:#e6e6e6; stroke:none;" d="M100 12L100 17L101 17C100.912 15.0359 100.779 13.769 100 12z"/>
<path style="fill:#272727; stroke:none;" d="M133 12L134 13L133 12z"/>
<path style="fill:#686868; stroke:none;" d="M134 12L134 13L137 13C135.752 12.3152 135.452 12.2512 134 12z"/>
<path style="fill:#878787; stroke:none;" d="M17 13L17 21L18 21C17.9928 18.1645 18.0977 15.6127 17 13z"/>
<path style="fill:#b7b7b7; stroke:none;" d="M28 13L29 14L28 13z"/>
<path style="fill:#c8c8c8; stroke:none;" d="M30.6667 13.3333C30.2222 13.7778 31.2778 13.7222 31.3333 13.6667C31.7778 13.2222 30.7222 13.2778 30.6667 13.3333z"/>
<path style="fill:#878787; stroke:none;" d="M39 13L40 14L39 13M42 13L42 16L43 16C42.7488 14.5484 42.6848 14.2484 42 13z"/>
<path style="fill:#777777; stroke:none;" d="M58 13L58 20L59 20C58.9813 17.4566 58.9845 15.3316 58 13z"/>
<path style="fill:#b7b7b7; stroke:none;" d="M66.3333 13.6667C66.2778 13.7222 66.2222 14.7778 66.6667 14.3333C66.7222 14.2778 66.7778 13.2222 66.3333 13.6667z"/>
<path style="fill:#d8d8d8; stroke:none;" d="M81.6667 13.3333C81.2222 13.7778 82.2778 13.7222 82.3333 13.6667C82.7778 13.2222 81.7222 13.2778 81.6667 13.3333z"/>
<path style="fill:#474747; stroke:none;" d="M85 13L85 16L86 16C85.7488 14.5484 85.6848 14.2484 85 13z"/>
<path style="fill:#878787; stroke:none;" d="M133 13L134 14L133 13z"/>
<path style="fill:#989898; stroke:none;" d="M26.6667 14.3333C26.2222 14.7778 27.2778 14.7222 27.3333 14.6667C27.7778 14.2222 26.7222 14.2778 26.6667 14.3333z"/>
<path style="fill:#a7a7a7; stroke:none;" d="M38 14L39 15L38 14z"/>
<path style="fill:#474747; stroke:none;" d="M39 14L40 15L39 14z"/>
<path style="fill:#e6e6e6; stroke:none;" d="M48 14L48 17L49 17C48.7488 15.5484 48.6848 15.2484 48 14z"/>
<path style="fill:#878787; stroke:none;" d="M71 14L72 15L71 14z"/>
<path style="fill:#989898; stroke:none;" d="M106 14L106 21L107 21C106.981 18.4567 106.985 16.3315 106 14z"/>
<path style="fill:#595959; stroke:none;" d="M107 14L108 15L107 14z"/>
<path style="fill:#474747; stroke:none;" d="M129 14L129 39L130 39C130 31.503 131.907 20.9279 129 14z"/>
<path style="fill:#989898; stroke:none;" d="M130 14L130 15L133 15C131.752 14.3152 131.452 14.2512 130 14z"/>
<path style="fill:#c8c8c8; stroke:none;" d="M34 19L35 19C36.1034 17.5434 36.5434 17.1034 38 16C35.3934 15.3314 34.683 16.5248 34 19z"/>
<path style="fill:#686868; stroke:none;" d="M38 15L39 16L38 15z"/>
<path style="fill:#878787; stroke:none;" d="M66 15L67 16L66 15z"/>
<path style="fill:#474747; stroke:none;" d="M71 15L72 16L71 15z"/>
<path style="fill:#989898; stroke:none;" d="M72 15L73 16L72 15z"/>
<path style="fill:#e6e6e6; stroke:none;" d="M130 15C130 29.9253 128.859 42.5644 125 57C132.906 49.7201 134.019 24.5774 130 15z"/>
<path style="fill:#777777; stroke:none;" d="M36 16L37 17L36 16z"/>
<path style="fill:#474747; stroke:none;" d="M37 16L38 17L37 16M41 16L42 17L41 16z"/>
<path style="fill:#d8d8d8; stroke:none;" d="M42.3333 16.6667C42.2778 16.7222 42.2222 17.7778 42.6667 17.3333C42.7222 17.2778 42.7778 16.2222 42.3333 16.6667z"/>
<path style="fill:#878787; stroke:none;" d="M65 16L65 23L66 23C65.9813 20.4567 65.9845 18.3316 65 16z"/>
<path style="fill:#595959; stroke:none;" d="M72 16L73 17L72 16z"/>
<path style="fill:#a7a7a7; stroke:none;" d="M73 16L74 17L73 16z"/>
<path style="fill:#878787; stroke:none;" d="M86 16L87 17L86 16z"/>
<path style="fill:#474747; stroke:none;" d="M35.3333 17.6667C35.2778 17.7222 35.2222 18.7778 35.6667 18.3333C35.7222 18.2778 35.7778 17.2222 35.3333 17.6667z"/>
<path style="fill:#595959; stroke:none;" d="M40 17L40 26L41 26C40.9983 22.8741 41.2129 19.8897 40 17z"/>
<path style="fill:#b7b7b7; stroke:none;" d="M41.3333 17.6667C41.2778 17.7222 41.2222 18.7778 41.6667 18.3333C41.7222 18.2778 41.7778 17.2222 41.3333 17.6667z"/>
<path style="fill:#c8c8c8; stroke:none;" d="M48.3333 17.6667C48.2778 17.7222 48.2222 18.7778 48.6667 18.3333C48.7222 18.2778 48.7778 17.2222 48.3333 17.6667z"/>
<path style="fill:#474747; stroke:none;" d="M73 17L74 18L73 17z"/>
<path style="fill:#989898; stroke:none;" d="M74 17L75 18L74 17z"/>
<path style="fill:#686868; stroke:none;" d="M87 17L88 18L87 17z"/>
<path style="fill:#383838; stroke:none;" d="M122 18L122 19L126 18C124.191 17.4257 123.931 17.5347 122 18z"/>
<path style="fill:#686868; stroke:none;" d="M75 18L76 19L75 18z"/>
<path style="fill:#a7a7a7; stroke:none;" d="M76 18L77 19L76 18z"/>
<path style="fill:#878787; stroke:none;" d="M88 18L89 19L88 18z"/>
<path style="fill:#1b1b1b; stroke:none;" d="M89 18L89 26L90 26C89.9928 23.1645 90.0977 20.6127 89 18z"/>
<path style="fill:#d8d8d8; stroke:none;" d="M123 18L123 19L126 19C124.752 18.3152 124.452 18.2512 123 18z"/>
<path style="fill:#686868; stroke:none;" d="M126 18L126 34L127 34C127 28.9098 127.982 22.7238 126 18z"/>
<path style="fill:#989898; stroke:none;" d="M24 19L24 20L28 20C26.494 19.317 25.6852 19.1741 24 19z"/>
<path style="fill:#777777; stroke:none;" d="M35 19L36 20L35 19z"/>
<path style="fill:#d8d8d8; stroke:none;" d="M41 19L41 26L42 26C41.9813 23.4566 41.9845 21.3316 41 19z"/>
<path style="fill:#a7a7a7; stroke:none;" d="M47 19L47 23L48 23C47.8259 21.3148 47.683 20.506 47 19z"/>
<path style="fill:#474747; stroke:none;" d="M76 19L77 20L76 19z"/>
<path style="fill:#b7b7b7; stroke:none;" d="M77.6667 19.3333C77.2222 19.7777 78.2778 19.7222 78.3333 19.6667C78.7778 19.2222 77.7222 19.2778 77.6667 19.3333M88 19L88 26L89 26C88.9813 23.4567 88.9845 21.3316 88 19z"/>
<path style="fill:#383838; stroke:none;" d="M98 19L99 20L98 19z"/>
<path style="fill:#989898; stroke:none;" d="M99 19L100 20L99 19z"/>
<path style="fill:#686868; stroke:none;" d="M119 19L119 20L122 20C120.752 19.3152 120.452 19.2512 119 19z"/>
<path style="fill:#a7a7a7; stroke:none;" d="M122 19L123 20L122 19z"/>
<path style="fill:#ffffff; stroke:none;" d="M113 36C116.976 33.8268 119.549 32.5332 123 36L124 36C126.36 30.4298 126 24.9505 126 19C116.701 20.4769 113.074 27.1977 113 36z"/>
<path style="fill:#c8c8c8; stroke:none;" d="M23 20L23 24L24 24C23.8259 22.3148 23.683 21.506 23 20z"/>
<path style="fill:#595959; stroke:none;" d="M24 20L24 25L25 25C24.9124 23.0359 24.7789 21.769 24 20M27 20L28 21L27 20z"/>
<path style="fill:#c8c8c8; stroke:none;" d="M28 20L29 21L28 20z"/>
<path style="fill:#b7b7b7; stroke:none;" d="M36 20L36 30L37 30C36.9996 26.5856 37.3274 23.1633 36 20z"/>
<path style="fill:#383838; stroke:none;" d="M37 20C37.0005 24.1134 37.0435 27.9826 38 32L30 32L30 33C33.1691 32.9919 35.9592 32.8996 39 32C38.2706 28.0709 38.5283 23.6407 37 20M56 20L56 23L57 23C56.7488 21.5484 56.6848 21.2484 56 20z"/>
<path style="fill:#777777; stroke:none;" d="M57 20L58 21L57 20z"/>
<path style="fill:#474747; stroke:none;" d="M78 20L79 21L78 20z"/>
<path style="fill:#989898; stroke:none;" d="M79 20L80 21L79 20z"/>
<path style="fill:#474747; stroke:none;" d="M97 20L97 28L98 28C97.9928 25.1645 98.0977 22.6127 97 20z"/>
<path style="fill:#c8c8c8; stroke:none;" d="M98 20L98 28L99 28C98.9928 25.1645 99.0977 22.6127 98 20z"/>
<path style="fill:#d8d8d8; stroke:none;" d="M105.333 20.6667C105.278 20.7223 105.222 21.7778 105.667 21.3333C105.722 21.2778 105.778 20.2222 105.333 20.6667z"/>
<path style="fill:#a7a7a7; stroke:none;" d="M119 20L120 21L119 20z"/>
<path style="fill:#686868; stroke:none;" d="M16 21C15.1004 24.0408 15.0081 26.8309 15 30L16 30C16.0232 27.0049 16.4581 23.9346 16 21z"/>
<path style="fill:#c8c8c8; stroke:none;" d="M17 21L18 22L17 21z"/>
<path style="fill:#989898; stroke:none;" d="M28 21L29 22L28 21z"/>
<path style="fill:#b7b7b7; stroke:none;" d="M57 21L58 22L57 21z"/>
<path style="fill:#1b1b1b; stroke:none;" d="M68 21L68 25L69 25C68.8259 23.3148 68.683 22.506 68 21z"/>
<path style="fill:#686868; stroke:none;" d="M69.6667 21.3333C69.2222 21.7778 70.2778 21.7222 70.3333 21.6667C70.7778 21.2222 69.7222 21.2778 69.6667 21.3333z"/>
<path style="fill:#595959; stroke:none;" d="M79.6667 21.3333C79.2222 21.7778 80.2778 21.7222 80.3333 21.6667C80.7778 21.2222 79.7222 21.2778 79.6667 21.3333z"/>
<path style="fill:#a7a7a7; stroke:none;" d="M81 21L82 22L81 21z"/>
<path style="fill:#e6e6e6; stroke:none;" d="M82 21L82 25L83 25C82.8259 23.3148 82.683 22.506 82 21z"/>
<path style="fill:#595959; stroke:none;" d="M106 21L106 25L107 25C106.826 23.3148 106.683 22.506 106 21z"/>
<path style="fill:#474747; stroke:none;" d="M117 21L118 22L117 21z"/>
<path style="fill:#989898; stroke:none;" d="M118 21L119 22L118 21z"/>
<path style="fill:#d8d8d8; stroke:none;" d="M16 22L16 26L17 26C16.8259 24.3148 16.683 23.5061 16 22z"/>
<path style="fill:#595959; stroke:none;" d="M28 22L29 23L28 22z"/>
<path style="fill:#b7b7b7; stroke:none;" d="M29 22L30 23L29 22M64 22L65 23L64 22z"/>
<path style="fill:#a7a7a7; stroke:none;" d="M69 22L69 27L70 27C69.9124 25.0359 69.7789 23.769 69 22z"/>
<path style="fill:#474747; stroke:none;" d="M71 22L72 23L71 22z"/>
<path style="fill:#1b1b1b; stroke:none;" d="M72 22L72 23L76 23C74.494 22.317 73.6852 22.1741 72 22z"/>
<path style="fill:#474747; stroke:none;" d="M81.3333 22.6667C81.2777 22.7223 81.2222 23.7778 81.6667 23.3333C81.7222 23.2778 81.7778 22.2222 81.3333 22.6667z"/>
<path style="fill:#b7b7b7; stroke:none;" d="M105.333 22.6667C105.278 22.7223 105.222 23.7778 105.667 23.3333C105.722 23.2778 105.778 22.2222 105.333 22.6667z"/>
<path style="fill:#989898; stroke:none;" d="M117 22L118 23L117 22z"/>
<path style="fill:#686868; stroke:none;" d="M29 23L30 24L29 23z"/>
<path style="fill:#c8c8c8; stroke:none;" d="M30 23L30 31L31 31C30.9928 28.1645 31.0977 25.6127 30 23z"/>
<path style="fill:#e6e6e6; stroke:none;" d="M47 23C47.8993 25.1236 47.8764 25.1007 50 26C48.8966 24.5434 48.4566 24.1034 47 23z"/>
<path style="fill:#686868; stroke:none;" d="M48 23L49 24L48 23z"/>
<path style="fill:#a7a7a7; stroke:none;" d="M53 23L53 27L54 27L55 23L53 23z"/>
<path style="fill:#686868; stroke:none;" d="M55 23L56 24L55 23z"/>
<path style="fill:#989898; stroke:none;" d="M56 23L57 24L56 23M63 23L63 26L64 26C63.7488 24.5484 63.6848 24.2484 63 23z"/>
<path style="fill:#595959; stroke:none;" d="M64 23L65 24L64 23z"/>
<path style="fill:#a7a7a7; stroke:none;" d="M71 23L71 24L76 24C74.231 23.2211 72.9641 23.0876 71 23z"/>
<path style="fill:#272727; stroke:none;" d="M76 23L76 24C77.8006 24.5618 79.1218 24.8241 81 25L81 24L76 23z"/>
<path style="fill:#383838; stroke:none;" d="M115 23L116 24L115 23z"/>
<path style="fill:#a7a7a7; stroke:none;" d="M116 23L117 24L116 23z"/>
<path style="fill:#878787; stroke:none;" d="M23 24L24 25L23 24z"/>
<path style="fill:#474747; stroke:none;" d="M29 24L29 32L30 32C29.9928 29.1645 30.0977 26.6127 29 24z"/>
<path style="fill:#777777; stroke:none;" d="M49 24L50 25L49 24z"/>
<path style="fill:#d8d8d8; stroke:none;" d="M55.6667 24.3333C55.2222 24.7778 56.2778 24.7222 56.3333 24.6667C56.7778 24.2222 55.7222 24.2778 55.6667 24.3333z"/>
<path style="fill:#878787; stroke:none;" d="M76 24L77 25L76 24M81 24L82 25L81 24M105 24L106 25L105 24z"/>
<path style="fill:#272727; stroke:none;" d="M114 24L115 25L114 24z"/>
<path style="fill:#989898; stroke:none;" d="M115 24L116 25L115 24M22 25L22 32L23 32C22.9813 29.4567 22.9845 27.3315 22 25z"/>
<path style="fill:#a7a7a7; stroke:none;" d="M50 25L51 26L50 25z"/>
<path style="fill:#b7b7b7; stroke:none;" d="M76 25L76 26L82 26C79.9479 25.1258 78.2528 25.0472 76 25M104 25L104 28L105 28C104.749 26.5484 104.685 26.2483 104 25z"/>
<path style="fill:#1b1b1b; stroke:none;" d="M105 25L105 30L106 30L107 25L105 25z"/>
<path style="fill:#474747; stroke:none;" d="M113 25L113 28L114 28C113.749 26.5484 113.685 26.2483 113 25z"/>
<path style="fill:#b7b7b7; stroke:none;" d="M114 25L115 26L114 25z"/>
<path style="fill:#777777; stroke:none;" d="M41 26L42 27L41 26z"/>
<path style="fill:#c8c8c8; stroke:none;" d="M42 26L43 27L42 26z"/>
<path style="fill:#595959; stroke:none;" d="M51.6667 26.3333C51.2222 26.7778 52.2778 26.7222 52.3333 26.6667C52.7778 26.2222 51.7222 26.2778 51.6667 26.3333z"/>
<path style="fill:#a7a7a7; stroke:none;" d="M62 26L63 27L62 26z"/>
<path style="fill:#595959; stroke:none;" d="M63 26L64 27L63 26z"/>
<path style="fill:#686868; stroke:none;" d="M68 26L69 27L68 26z"/>
<path style="fill:#c8c8c8; stroke:none;" d="M87 26L88 27L87 26z"/>
<path style="fill:#686868; stroke:none;" d="M88 26L89 27L88 26z"/>
<path style="fill:#989898; stroke:none;" d="M42 27L43 28L42 27z"/>
<path style="fill:#c8c8c8; stroke:none;" d="M61 27C59.8137 28.1863 59.4721 28.5838 59 30C60.5481 28.7383 60.808 28.8061 61 27z"/>
<path style="fill:#383838; stroke:none;" d="M62 27L63 28L62 27z"/>
<path style="fill:#989898; stroke:none;" d="M67 27L67 30L68 30C67.7488 28.5484 67.6848 28.2484 67 27z"/>
<path style="fill:#878787; stroke:none;" d="M87 27L88 28L87 27z"/>
<path style="fill:#383838; stroke:none;" d="M42 28C42.6836 29.58 42.8048 29.7772 44 31C43.3087 29.6116 43.0154 29.1394 42 28z"/>
<path style="fill:#777777; stroke:none;" d="M61 28L62 29L61 28z"/>
<path style="fill:#a7a7a7; stroke:none;" d="M86 28L87 29L86 28z"/>
<path style="fill:#474747; stroke:none;" d="M87 28L88 29L87 28z"/>
<path style="fill:#777777; stroke:none;" d="M97 28L98 29L97 28z"/>
<path style="fill:#989898; stroke:none;" d="M104 28L104 32L105 32C104.826 30.3148 104.683 29.506 104 28z"/>
<path style="fill:#595959; stroke:none;" d="M112 28L113 29L112 28z"/>
<path style="fill:#a7a7a7; stroke:none;" d="M113 28L114 29L113 28z"/>
<path style="fill:#989898; stroke:none;" d="M43 29L44 30L43 29z"/>
<path style="fill:#777777; stroke:none;" d="M60 29L61 30L60 29z"/>
<path style="fill:#b7b7b7; stroke:none;" d="M85 29L86 30L85 29z"/>
<path style="fill:#595959; stroke:none;" d="M86 29L87 30L86 29z"/>
<path style="fill:#878787; stroke:none;" d="M96.3333 29.6667C96.2778 29.7222 96.2222 30.7778 96.6667 30.3333C96.7222 30.2778 96.7778 29.2222 96.3333 29.6667z"/>
<path style="fill:#e6e6e6; stroke:none;" d="M97.3333 29.6667C97.2778 29.7222 97.2222 30.7778 97.6667 30.3333C97.7222 30.2778 97.7778 29.2222 97.3333 29.6667z"/>
<path style="fill:#272727; stroke:none;" d="M111 29L111 44L112 44C112 39.1834 112.876 33.4714 111 29z"/>
<path style="fill:#b7b7b7; stroke:none;" d="M112 29L112 40L113 40C113 36.2998 113.44 32.4324 112 29z"/>
<path style="fill:#272727; stroke:none;" d="M13.3333 30.6667C13.2778 30.7222 13.2222 31.7778 13.6667 31.3333C13.7222 31.2778 13.7778 30.2222 13.3333 30.6667z"/>
<path style="fill:#878787; stroke:none;" d="M14.3333 30.6667C14.2778 30.7222 14.2222 31.7778 14.6667 31.3333C14.7222 31.2778 14.7778 30.2222 14.3333 30.6667z"/>
<path style="fill:#d8d8d8; stroke:none;" d="M15 30C16.9255 32.2077 19.125 31.9682 22 32L22 31C19.558 30.8905 17.3772 30.572 15 30z"/>
<path style="fill:#989898; stroke:none;" d="M37.3333 30.6667C37.2778 30.7222 37.2222 31.7778 37.6667 31.3333C37.7222 31.2778 37.7778 30.2222 37.3333 30.6667z"/>
<path style="fill:#878787; stroke:none;" d="M44 30L45 31L44 30z"/>
<path style="fill:#c8c8c8; stroke:none;" d="M57 30L58 31L57 30z"/>
<path style="fill:#878787; stroke:none;" d="M58 30L59 31L58 30z"/>
<path style="fill:#272727; stroke:none;" d="M59.6667 30.3333C59.2222 30.7778 60.2778 30.7222 60.3333 30.6667C60.7778 30.2222 59.7222 30.2778 59.6667 30.3333z"/>
<path style="fill:#474747; stroke:none;" d="M67 30C67.5451 31.6352 67.3649 31.455 69 32C68.4549 30.3648 68.6352 30.5451 67 30z"/>
<path style="fill:#a7a7a7; stroke:none;" d="M68 30L69 31L68 30z"/>
<path style="fill:#989898; stroke:none;" d="M83 30L84 31L83 30z"/>
<path style="fill:#474747; stroke:none;" d="M84.6667 30.3333C84.2222 30.7778 85.2778 30.7222 85.3333 30.6667C85.7778 30.2222 84.7222 30.2778 84.6667 30.3333z"/>
<path style="fill:#a7a7a7; stroke:none;" d="M30 31L31 32L30 31z"/>
<path style="fill:#d8d8d8; stroke:none;" d="M31 31L31 32L37 32C34.9479 31.1258 33.2528 31.0472 31 31z"/>
<path style="fill:#686868; stroke:none;" d="M45 31L46 32L45 31z"/>
<path style="fill:#b7b7b7; stroke:none;" d="M46 31L46 32L49 32C47.7516 31.3152 47.4516 31.2512 46 31z"/>
<path style="fill:#d8d8d8; stroke:none;" d="M49 31L49 32L54 32C52.231 31.2211 50.9641 31.0876 49 31z"/>
<path style="fill:#b7b7b7; stroke:none;" d="M54 31L54 32L57 32C55.7516 31.3152 55.4516 31.2512 54 31z"/>
<path style="fill:#777777; stroke:none;" d="M57 31L58 32L57 31z"/>
<path style="fill:#878787; stroke:none;" d="M69 31L70 32L69 31z"/>
<path style="fill:#b7b7b7; stroke:none;" d="M70.6667 31.3333C70.2222 31.7778 71.2778 31.7222 71.3333 31.6667C71.7778 31.2222 70.7222 31.2778 70.6667 31.3333z"/>
<path style="fill:#d8d8d8; stroke:none;" d="M72 31L72 32L80 32C77.3873 30.9023 74.8355 31.0072 72 31z"/>
<path style="fill:#b7b7b7; stroke:none;" d="M80 31L80 32L83 32C81.7517 31.3152 81.4516 31.2512 80 31z"/>
<path style="fill:#474747; stroke:none;" d="M95 31L96 32L95 31z"/>
<path style="fill:#b7b7b7; stroke:none;" d="M96 31L97 32L96 31z"/>
<path style="fill:#383838; stroke:none;" d="M14 32L14 33L22 33C19.3873 31.9023 16.8355 32.0072 14 32M45 32L45 33L58 33C54.0413 31.3389 49.2634 32 45 32M69 32L69 33L83 33C78.7835 31.2307 73.5411 32 69 32z"/>
<path style="fill:#878787; stroke:none;" d="M94 32L95 33L94 32z"/>
<path style="fill:#d8d8d8; stroke:none;" d="M95 32L96 33L95 32z"/>
<path style="fill:#c8c8c8; stroke:none;" d="M105 32L106 33L105 32z"/>
<path style="fill:#777777; stroke:none;" d="M106 32L107 33L106 32z"/>
<path style="fill:#c8c8c8; stroke:none;" d="M94.3333 33.6667C94.2778 33.7222 94.2222 34.7778 94.6667 34.3333C94.7222 34.2778 94.7778 33.2222 94.3333 33.6667z"/>
<path style="fill:#b7b7b7; stroke:none;" d="M97 33L97 34L105 34C102.387 32.9023 99.8355 33.0072 97 33M106.333 33.6667C106.278 33.7222 106.222 34.7778 106.667 34.3333C106.722 34.2778 106.778 33.2222 106.333 33.6667M116 33L116 34L122 34C119.948 33.1258 118.253 33.0472 116 33M125 33L126 34L125 33M132 33L132 34L139 34C136.668 33.0155 134.543 33.0187 132 33M143 33L143 34L165 34C158.798 31.3974 149.702 33 143 33M174 35C176.709 34.3521 179.216 34.0583 182 34C179.08 32.7767 176.163 32.5242 174 35z"/>
<path style="fill:#c8c8c8; stroke:none;" d="M182 33L182 34L186 35L186 34L182 33z"/>
<path style="fill:#777777; stroke:none;" d="M96 34L97 35L96 34z"/>
<path style="fill:#1b1b1b; stroke:none;" d="M97 34L97 35L104 35C101.668 34.0155 99.5434 34.0187 97 34z"/>
<path style="fill:#686868; stroke:none;" d="M104 34L105 35L104 34M115 34L115 38L116 38C115.826 36.3148 115.683 35.506 115 34z"/>
<path style="fill:#1b1b1b; stroke:none;" d="M116 34L116 35L121 35C119.231 34.2211 117.964 34.0876 116 34z"/>
<path style="fill:#686868; stroke:none;" d="M121.333 34.6667C121.278 34.7222 121.222 35.7778 121.667 35.3333C121.722 35.2778 121.778 34.2222 121.333 34.6667z"/>
<path style="fill:#d8d8d8; stroke:none;" d="M122 34C121.499 36.6858 121.117 39.2699 121 42L122 42C122.548 39.0026 123.403 36.7464 122 34z"/>
<path style="fill:#777777; stroke:none;" d="M124 34L124 37L125 37C124.749 35.5484 124.685 35.2484 124 34z"/>
<path style="fill:#989898; stroke:none;" d="M132 34L133 35L132 34z"/>
<path style="fill:#474747; stroke:none;" d="M133 34C132.014 35.4785 132 35.2032 132 37L133 37C133.216 35.5774 133.273 35.3283 133 34z"/>
<path style="fill:#1b1b1b; stroke:none;" d="M134 34L134 35L138 35C136.494 34.317 135.685 34.1741 134 34z"/>
<path style="fill:#474747; stroke:none;" d="M138.333 34.6667C138.278 34.7222 138.222 35.7778 138.667 35.3333C138.722 35.2778 138.778 34.2222 138.333 34.6667z"/>
<path style="fill:#e6e6e6; stroke:none;" d="M139 34L139 38L140 38C139.826 36.3148 139.683 35.506 139 34z"/>
<path style="fill:#989898; stroke:none;" d="M142 34L142 37L143 37C142.749 35.5484 142.685 35.2483 142 34z"/>
<path style="fill:#595959; stroke:none;" d="M143 34L144 35L143 34z"/>
<path style="fill:#1b1b1b; stroke:none;" d="M144 34L144 35L165 35C159.041 32.4995 150.436 34 144 34z"/>
<path style="fill:#989898; stroke:none;" d="M165 34L165 38L166 38C165.826 36.3148 165.683 35.506 165 34z"/>
<path style="fill:#686868; stroke:none;" d="M175 34L175 35L178 35C176.752 34.3152 176.452 34.2512 175 34z"/>
<path style="fill:#1b1b1b; stroke:none;" d="M178 34L178 35L182 35C180.494 34.317 179.685 34.1741 178 34z"/>
<path style="fill:#686868; stroke:none;" d="M182 34L182 35L185 35C183.752 34.3152 183.452 34.2512 182 34z"/>
<path style="fill:#383838; stroke:none;" d="M92 35L93 36L92 35z"/>
<path style="fill:#777777; stroke:none;" d="M93 35L94 36L93 35z"/>
<path style="fill:#e6e6e6; stroke:none;" d="M94 35C92.6618 37.66 91.6212 40.0906 91 43L92 43L96 35L94 35z"/>
<path style="fill:#272727; stroke:none;" d="M96.3333 35.6667C96.2778 35.7222 96.2222 36.7778 96.6667 36.3333C96.7222 36.2778 96.7778 35.2222 96.3333 35.6667z"/>
<path style="fill:#010101; stroke:none;" d="M84 63C90.3925 62.0611 101.484 47.1621 102 63L108 63C105.337 54.5988 104.074 43.8182 104 35C93.0839 35.13 86.2919 53.3817 84 63z"/>
<path style="fill:#272727; stroke:none;" d="M104 35L104 43L105 43C104.993 40.1645 105.098 37.6127 104 35z"/>
<path style="fill:#e6e6e6; stroke:none;" d="M105 35C106.001 36.9238 106.077 37.0985 108 38C107.101 35.8764 107.124 35.8993 105 35z"/>
<path style="fill:#686868; stroke:none;" d="M107 35L108 36L107 35z"/>
<path style="fill:#272727; stroke:none;" d="M108 35L109 36L108 35z"/>
<path style="fill:#d8d8d8; stroke:none;" d="M114 35C110.779 43.5859 110.513 53.0603 109 62L110 62C112.565 55.9461 115.932 41.2813 114 35z"/>
<path style="fill:#010101; stroke:none;" d="M116 35C115.313 41.9041 111.5 50.0099 113.434 56.9846C115.813 65.5575 127.961 63.8479 132.231 57.9421C136.907 51.4771 135.223 42.2485 138 35C128.014 35.7964 133.204 50.7972 126.725 56.6775C123.119 59.9505 118.219 57.6085 117.488 52.9954C116.521 46.8987 119.224 40.635 121 35L116 35M143 35L143 38C145.784 38.0583 148.291 38.3521 151 39C149.101 46.9504 148.215 55.1161 146 63L151 63C152.075 57.2119 151.734 44.0769 155.894 39.8935C158.08 37.6942 162.246 37.436 165 36C158.798 33.3974 149.702 35 143 35z"/>
<path style="fill:#a7a7a7; stroke:none;" d="M167 35L168 36L167 35z"/>
<path style="fill:#777777; stroke:none;" d="M168 35L169 36L168 35z"/>
<path style="fill:#c8c8c8; stroke:none;" d="M171 35L170 37C171.263 36.0287 171.392 36.3062 171 35z"/>
<path style="fill:#686868; stroke:none;" d="M171 37L174 36C172.234 35.5991 172.443 35.7108 171 37z"/>
<path style="fill:#272727; stroke:none;" d="M174 35L174 36L177 36C175.752 35.3152 175.452 35.2512 174 35z"/>
<path style="fill:#010101; stroke:none;" d="M177 35.4444C161.856 38.0153 160.082 65.2742 178 62.6921C194.189 60.3591 196.029 32.2142 177 35.4444z"/>
<path style="fill:#383838; stroke:none;" d="M184 35L185 36L184 35z"/>
<path style="fill:#595959; stroke:none;" d="M185 35L186 36L185 35z"/>
<path style="fill:#989898; stroke:none;" d="M186 35L187 36L186 35z"/>
<path style="fill:#b7b7b7; stroke:none;" d="M187 35C188.33 36.7525 189.247 37.6697 191 39C189.67 37.2475 188.753 36.3303 187 35z"/>
<path style="fill:#989898; stroke:none;" d="M92 36L92 39L93 39C92.7488 37.5484 92.6848 37.2484 92 36z"/>
<path style="fill:#878787; stroke:none;" d="M95 36L96 37L95 36z"/>
<path style="fill:#989898; stroke:none;" d="M105 36L105 39L106 39C105.749 37.5484 105.685 37.2483 105 36z"/>
<path style="fill:#777777; stroke:none;" d="M108 36C108 41.0357 107.565 46.1469 109 51L110 51C108.835 46.1057 109.918 40.5703 108 36z"/>
<path style="fill:#383838; stroke:none;" d="M120 36L120 39L121 39C120.749 37.5484 120.685 37.2483 120 36z"/>
<path style="fill:#989898; stroke:none;" d="M121 36L122 37L121 36z"/>
<path style="fill:#c8c8c8; stroke:none;" d="M131 36L131 39L132 39C131.749 37.5485 131.685 37.2483 131 36z"/>
<path style="fill:#a7a7a7; stroke:none;" d="M138 36L137 42L141 41C140.142 39.0378 139.366 37.6314 138 36z"/>
<path style="fill:#1b1b1b; stroke:none;" d="M163 36C160.692 37.7594 158.908 37.9172 156 38L156 39C158.572 38.9983 164.458 39.8687 163 36z"/>
<path style="fill:#595959; stroke:none;" d="M164.333 36.6667C164.278 36.7222 164.222 37.7778 164.667 37.3333C164.722 37.2778 164.778 36.2222 164.333 36.6667M187 36L188 37L187 36z"/>
<path style="fill:#474747; stroke:none;" d="M95 37L96 38L95 37z"/>
<path style="fill:#686868; stroke:none;" d="M123 37L124 38L123 37z"/>
<path style="fill:#272727; stroke:none;" d="M124 37L125 38L124 37M136 37L136 44L137 44C136.981 41.4566 136.985 39.3316 136 37z"/>
<path style="fill:#474747; stroke:none;" d="M137 37L137 40L138 40C137.749 38.5485 137.685 38.2483 137 37z"/>
<path style="fill:#777777; stroke:none;" d="M142.333 37.6667C142.278 37.7222 142.222 38.7778 142.667 38.3333C142.722 38.2778 142.778 37.2222 142.333 37.6667z"/>
<path style="fill:#c8c8c8; stroke:none;" d="M165 38C166.735 39.0501 166.932 39.0462 169 39C167.265 37.9499 167.068 37.9538 165 38z"/>
<path style="fill:#a7a7a7; stroke:none;" d="M169 37L170 38L169 37z"/>
<path style="fill:#595959; stroke:none;" d="M170 37L171 38L170 37z"/>
<path style="fill:#686868; stroke:none;" d="M188 37L189 38L188 37z"/>
<path style="fill:#e6e6e6; stroke:none;" d="M192 37C191.672 40.8079 192.635 44.2332 193 48L194 48C193.972 44.3202 192.816 40.3188 196 38C194.494 37.317 193.685 37.1741 192 37z"/>
<path style="fill:#878787; stroke:none;" d="M94 38L95 39L94 38z"/>
<path style="fill:#1b1b1b; stroke:none;" d="M99 38L99 39C100.422 40.7885 100.697 41.7058 101 44L102 44C101.779 40.9935 101.545 39.6345 99 38z"/>
<path style="fill:#c8c8c8; stroke:none;" d="M106 38L106 43L107 43L108 38L106 38z"/>
<path style="fill:#878787; stroke:none;" d="M114.333 38.6667C114.278 38.7222 114.222 39.7778 114.667 39.3333C114.722 39.2778 114.778 38.2222 114.333 38.6667z"/>
<path style="fill:#272727; stroke:none;" d="M115.333 38.6667C115.278 38.7222 115.222 39.7778 115.667 39.3333C115.722 39.2778 115.778 38.2222 115.333 38.6667z"/>
<path style="fill:#b7b7b7; stroke:none;" d="M122.333 38.6667C122.278 38.7222 122.222 39.7778 122.667 39.3333C122.722 39.2778 122.778 38.2222 122.333 38.6667z"/>
<path style="fill:#1b1b1b; stroke:none;" d="M143 38L143 39C145.908 39.0828 147.692 39.2405 150 41C150.59 37.4198 145.655 38.0108 143 38z"/>
<path style="fill:#878787; stroke:none;" d="M164 38L165 39L164 38z"/>
<path style="fill:#383838; stroke:none;" d="M169 38L170 39L169 38z"/>
<path style="fill:#272727; stroke:none;" d="M176 38L176 39L182 39C179.948 38.1258 178.253 38.0472 176 38z"/>
<path style="fill:#595959; stroke:none;" d="M189 38L190 39L189 38z"/>
<path style="fill:#b7b7b7; stroke:none;" d="M193 41L194 41C194.545 39.3649 194.365 39.545 196 39C193.86 37.8822 193.473 38.7492 193 41z"/>
<path style="fill:#777777; stroke:none;" d="M90 39L90 42L91 42C90.7488 40.5484 90.6848 40.2483 90 39z"/>
<path style="fill:#a7a7a7; stroke:none;" d="M91 39L92 40L91 39z"/>
<path style="fill:#595959; stroke:none;" d="M94 39L95 40L94 39z"/>
<path style="fill:#474747; stroke:none;" d="M97 44L98 44C98 42.2032 98.0143 42.4785 99 41C99.9857 42.4785 100 42.2032 100 44L101 44L101 39C98.4527 40.3726 97.8125 41.2183 97 44z"/>
<path style="fill:#686868; stroke:none;" d="M105 39L105 43L106 43C105.826 41.3148 105.683 40.5061 105 39z"/>
<path style="fill:#e6e6e6; stroke:none;" d="M107 39L107 50L108 50C108 46.2998 108.44 42.4324 107 39z"/>
<path style="fill:#777777; stroke:none;" d="M120.333 39.6667C120.278 39.7222 120.222 40.7778 120.667 40.3333C120.722 40.2778 120.778 39.2222 120.333 39.6667z"/>
<path style="fill:#272727; stroke:none;" d="M127 39L127 48L128 48C127.998 44.8741 128.213 41.8897 127 39z"/>
<path style="fill:#595959; stroke:none;" d="M128 39L129 40L128 39z"/>
<path style="fill:#b7b7b7; stroke:none;" d="M129 39L130 40L129 39z"/>
<path style="fill:#777777; stroke:none;" d="M131 39L131 42L132 42C131.749 40.5485 131.685 40.2483 131 39z"/>
<path style="fill:#c8c8c8; stroke:none;" d="M141 40L141 41L147 41C144.814 39.8839 143.451 39.7734 141 40z"/>
<path style="fill:#989898; stroke:none;" d="M143 39L143 40C146.007 40.2206 147.365 40.4547 149 43C149.867 39.1401 146.061 39.1002 143 39z"/>
<path style="fill:#595959; stroke:none;" d="M149 39L150 40L149 39z"/>
<path style="fill:#474747; stroke:none;" d="M156 39L157 40L156 39z"/>
<path style="fill:#989898; stroke:none;" d="M157 39L157 40L164 40C161.668 39.0155 159.543 39.0187 157 39z"/>
<path style="fill:#e6e6e6; stroke:none;" d="M164 39L164 41L167 41L167 39L164 39z"/>
<path style="fill:#474747; stroke:none;" d="M168 39L169 40L168 39z"/>
<path style="fill:#383838; stroke:none;" d="M175 39L176 40L175 39z"/>
<path style="fill:#777777; stroke:none;" d="M176 39L177 40L176 39z"/>
<path style="fill:#e6e6e6; stroke:none;" d="M177 39L177 41L182 41C180.212 39.5785 179.294 39.3026 177 39z"/>
<path style="fill:#a7a7a7; stroke:none;" d="M181 39L182 40L181 39z"/>
<path style="fill:#686868; stroke:none;" d="M182 39C183.879 42.4155 184.876 45.0896 185 49L186 49C185.948 44.5648 185.492 41.909 182 39z"/>
<path style="fill:#878787; stroke:none;" d="M190 39L191 40L190 39z"/>
<path style="fill:#d8d8d8; stroke:none;" d="M194.667 39.3333C194.222 39.7778 195.278 39.7222 195.333 39.6667C195.778 39.2222 194.722 39.2778 194.667 39.3333z"/>
<path style="fill:#878787; stroke:none;" d="M93 40L94 41L93 40z"/>
<path style="fill:#474747; stroke:none;" d="M114.333 40.6667C114.278 40.7222 114.222 41.7778 114.667 41.3333C114.722 41.2778 114.778 40.2222 114.333 40.6667z"/>
<path style="fill:#1b1b1b; stroke:none;" d="M118 40L118 48L119 48C119.058 45.2155 119.352 42.7092 120 40L118 40z"/>
<path style="fill:#878787; stroke:none;" d="M122 40L122 45L123 45C122.912 43.0359 122.779 41.769 122 40z"/>
<path style="fill:#989898; stroke:none;" d="M128 40L128 44L129 44C128.826 42.3148 128.683 41.506 128 40z"/>
<path style="fill:#ffffff; stroke:none;" d="M147 40L148 43L149 43L149 40L147 40z"/>
<path style="fill:#272727; stroke:none;" d="M154 40L154 45L155 45L156 40L154 40z"/>
<path style="fill:#b7b7b7; stroke:none;" d="M156 40L157 46L158 46C159.057 42.5083 160.418 41.568 164 41C161.387 39.9023 158.835 40.0072 156 40z"/>
<path style="fill:#383838; stroke:none;" d="M167.333 40.6667C167.278 40.7222 167.222 41.7778 167.667 41.3333C167.722 41.2778 167.778 40.2222 167.333 40.6667z"/>
<path style="fill:#474747; stroke:none;" d="M174 40L175 41L174 40z"/>
<path style="fill:#878787; stroke:none;" d="M175 40L176 41L175 40z"/>
<path style="fill:#b7b7b7; stroke:none;" d="M176 40C175.043 41.5167 174.613 42.3385 174 44C175.63 42.4852 176.163 42.1447 176 40z"/>
<path style="fill:#c8c8c8; stroke:none;" d="M182 40C182.936 41.9486 183.392 42.5502 185 44C184.064 42.0515 183.608 41.4498 182 40z"/>
<path style="fill:#474747; stroke:none;" d="M190.333 40.6667C190.278 40.7222 190.222 41.7778 190.667 41.3333C190.722 41.2778 190.778 40.2222 190.333 40.6667z"/>
<path style="fill:#989898; stroke:none;" d="M194.667 40.3333C194.222 40.7778 195.278 40.7222 195.333 40.6667C195.778 40.2222 194.722 40.2778 194.667 40.3333z"/>
<path style="fill:#c8c8c8; stroke:none;" d="M92 41L93 42L92 41z"/>
<path style="fill:#474747; stroke:none;" d="M93 41L94 42L93 41z"/>
<path style="fill:#686868; stroke:none;" d="M98.6667 41.3333C98.2222 41.7778 99.2778 41.7222 99.3333 41.6667C99.7778 41.2222 98.7222 41.2778 98.6667 41.3333z"/>
<path style="fill:#474747; stroke:none;" d="M119 41L119 44L120 44C119.749 42.5484 119.685 42.2484 119 41z"/>
<path style="fill:#989898; stroke:none;" d="M120 41L120 44L121 44C120.749 42.5484 120.685 42.2483 120 41z"/>
<path style="fill:#b7b7b7; stroke:none;" d="M130 41L130 44L131 44C130.749 42.5484 130.685 42.2484 130 41z"/>
<path style="fill:#c8c8c8; stroke:none;" d="M138 41C137.008 44.2645 136.626 47.6379 136 51C138.707 48.6709 139.18 44.2902 138 41z"/>
<path style="fill:#474747; stroke:none;" d="M139 44L140 44C142.583 42.5862 143.772 43.1204 146 45C147.611 40.6996 140.776 40.8254 139 44z"/>
<path style="fill:#878787; stroke:none;" d="M143 41L143 42C144.952 42.5108 145.457 42.7333 147 44C148.095 41.0949 145.45 41.1205 143 41z"/>
<path style="fill:#686868; stroke:none;" d="M155 41L155 45L156 45C155.826 43.3148 155.683 42.506 155 41z"/>
<path style="fill:#878787; stroke:none;" d="M159 41L159 42C160.952 42.5107 161.457 42.7333 163 44C164.095 41.0949 161.45 41.1205 159 41z"/>
<path style="fill:#d8d8d8; stroke:none;" d="M164 41C162.729 46.7002 161.267 51.1367 163 57L164 57C164 51.3417 164.28 46.4255 166 41L164 41z"/>
<path style="fill:#989898; stroke:none;" d="M166 41L167 42L166 41z"/>
<path style="fill:#383838; stroke:none;" d="M173 41L172 43C173.263 42.0287 173.392 42.3063 173 41z"/>
<path style="fill:#989898; stroke:none;" d="M174 41L175 42L174 41z"/>
<path style="fill:#777777; stroke:none;" d="M177 41L176 43C177.263 42.0287 177.392 42.3062 177 41z"/>
<path style="fill:#272727; stroke:none;" d="M178 41L178 42L181 42C179.752 41.3152 179.452 41.2512 178 41z"/>
<path style="fill:#878787; stroke:none;" d="M181 41L182 42L181 41z"/>
<path style="fill:#a7a7a7; stroke:none;" d="M191 41L192 42L191 41z"/>
<path style="fill:#474747; stroke:none;" d="M194 41L194 52L195 52C195 48.2998 195.44 44.4324 194 41z"/>
<path style="fill:#010101; stroke:none;" d="M195 41C194.999 50.4761 192.502 62.0347 182 65L182 66L196 66C196 58.503 197.907 47.9279 195 41z"/>
<path style="fill:#595959; stroke:none;" d="M89 42L90 43L89 42z"/>
<path style="fill:#b7b7b7; stroke:none;" d="M90 42L91 43L90 42z"/>
<path style="fill:#878787; stroke:none;" d="M92 42L93 43L92 42z"/>
<path style="fill:#989898; stroke:none;" d="M98.6667 42.3333C98.2222 42.7778 99.2778 42.7222 99.3333 42.6667C99.7778 42.2222 98.7222 42.2778 98.6667 42.3333z"/>
<path style="fill:#c8c8c8; stroke:none;" d="M121 42L120 46C121.656 44.5957 121.751 44.0465 121 42z"/>
<path style="fill:#595959; stroke:none;" d="M131.333 42.6667C131.278 42.7222 131.222 43.7778 131.667 43.3333C131.722 43.2778 131.778 42.2222 131.333 42.6667z"/>
<path style="fill:#010101; stroke:none;" d="M140 42C139.993 51.151 136.942 60.886 128 65L128 66L144 66L140 60C144.531 59.029 145.161 47.4372 146 43L140 42z"/>
<path style="fill:#595959; stroke:none;" d="M158 42L158 46L159 46C158.826 44.3148 158.683 43.506 158 42z"/>
<path style="fill:#383838; stroke:none;" d="M159 42L159 43L163 43C161.494 42.317 160.685 42.1741 159 42z"/>
<path style="fill:#a7a7a7; stroke:none;" d="M165 42L165 45L166 45C165.749 43.5484 165.685 43.2484 165 42z"/>
<path style="fill:#474747; stroke:none;" d="M166 42L167 43L166 42z"/>
<path style="fill:#989898; stroke:none;" d="M173 42L174 43L173 42z"/>
<path style="fill:#010101; stroke:none;" d="M174 53L181 53C181.323 50.4633 183.302 46.7286 182.204 44.2793C178.599 36.2412 174.061 50.1532 174 53z"/>
<path style="fill:#989898; stroke:none;" d="M182 42L183 43L182 42z"/>
<path style="fill:#686868; stroke:none;" d="M191.333 42.6667C191.278 42.7222 191.222 43.7778 191.667 43.3333C191.722 43.2778 191.778 42.2222 191.333 42.6667z"/>
<path style="fill:#474747; stroke:none;" d="M88 43L88 46L89 46C88.7488 44.5484 88.6848 44.2483 88 43z"/>
<path style="fill:#ffffff; stroke:none;" d="M89 43L88 49L89 49C89.8806 46.9786 90.4964 45.1459 91 43L89 43z"/>
<path style="fill:#c8c8c8; stroke:none;" d="M91 43L92 44L91 43z"/>
<path style="fill:#595959; stroke:none;" d="M92 43L93 44L92 43z"/>
<path style="fill:#c8c8c8; stroke:none;" d="M98 43L98 45L100 45L100 43L98 43z"/>
<path style="fill:#383838; stroke:none;" d="M105 43L105 46L106 46C105.749 44.5484 105.685 44.2483 105 43z"/>
<path style="fill:#a7a7a7; stroke:none;" d="M106 43L106 46L107 46C106.749 44.5484 106.685 44.2483 106 43z"/>
<path style="fill:#b7b7b7; stroke:none;" d="M148 43C147.043 44.5167 146.613 45.3385 146 47L147 47C147.838 45.3773 148.28 44.7135 148 43z"/>
<path style="fill:#686868; stroke:none;" d="M149.333 43.6667C149.278 43.7222 149.222 44.7778 149.667 44.3333C149.722 44.2778 149.778 43.2222 149.333 43.6667z"/>
<path style="fill:#010101; stroke:none;" d="M159 43C156.528 49.9199 158.138 59.5585 153 65L153 66L170 66L170 65C160.578 61.3088 159.388 51.5237 163 43L159 43z"/>
<path style="fill:#686868; stroke:none;" d="M172 43L173 44L172 43z"/>
<path style="fill:#e6e6e6; stroke:none;" d="M173.333 43.6667C173.278 43.7222 173.222 44.7778 173.667 44.3333C173.722 44.2778 173.778 43.2222 173.333 43.6667z"/>
<path style="fill:#595959; stroke:none;" d="M175 43L176 44L175 43z"/>
<path style="fill:#474747; stroke:none;" d="M182 43L183 44L182 43z"/>
<path style="fill:#878787; stroke:none;" d="M183 43L183 48L184 48C183.912 46.0359 183.779 44.769 183 43z"/>
<path style="fill:#c8c8c8; stroke:none;" d="M192 43C191.972 46.4218 191.625 49.6368 191 53C194.676 50.5892 193.74 46.6222 192 43z"/>
<path style="fill:#878787; stroke:none;" d="M91 44L92 45L91 44z"/>
<path style="fill:#1b1b1b; stroke:none;" d="M92 44C91.0143 45.4785 91 45.2032 91 47C92.2892 45.5574 92.4009 45.7663 92 44z"/>
<path style="fill:#b7b7b7; stroke:none;" d="M97 44L96 49L97 49L98 47C98.7679 48.3141 98.6859 48.2321 100 49C99.5734 46.3555 99.1791 45.5394 97 44z"/>
<path style="fill:#878787; stroke:none;" d="M100 44L100 50L101 50C100.953 47.7472 100.874 46.0521 100 44z"/>
<path style="fill:#383838; stroke:none;" d="M101 44L101 52L102 52C101.993 49.1645 102.098 46.6127 101 44M110 44L111 45L110 44z"/>
<path style="fill:#878787; stroke:none;" d="M111 44L112 45L111 44M119.333 44.6667C119.278 44.7222 119.222 45.7778 119.667 45.3333C119.722 45.2778 119.778 44.2222 119.333 44.6667z"/>
<path style="fill:#686868; stroke:none;" d="M130.333 44.6667C130.278 44.7222 130.222 45.7778 130.667 45.3333C130.722 45.2778 130.778 44.2222 130.333 44.6667z"/>
<path style="fill:#595959; stroke:none;" d="M136 44L136 47L137 47C136.749 45.5485 136.685 45.2483 136 44z"/>
<path style="fill:#1b1b1b; stroke:none;" d="M139 44C138.936 47.0779 138.562 49.9749 138 53L139 53C139.942 49.8083 140.301 47.1051 139 44z"/>
<path style="fill:#c8c8c8; stroke:none;" d="M156 44C155.66 46.0182 155.677 46.9676 156 49L157 49C156.912 47.0359 156.779 45.769 156 44z"/>
<path style="fill:#474747; stroke:none;" d="M162 44L163 45L162 44z"/>
<path style="fill:#989898; stroke:none;" d="M163 44L164 45L163 44z"/>
<path style="fill:#474747; stroke:none;" d="M171 44L172 45L171 44z"/>
<path style="fill:#c8c8c8; stroke:none;" d="M172 44C171.806 45.8566 171.79 47.1533 172 49C173.143 46.8455 173.205 46.0975 172 44z"/>
<path style="fill:#989898; stroke:none;" d="M174 44L175 45L174 44z"/>
<path style="fill:#ffffff; stroke:none;" d="M184 44L184 48L185 48C184.826 46.3148 184.683 45.5061 184 44z"/>
<path style="fill:#474747; stroke:none;" d="M191 44L191 48L192 48C191.826 46.3148 191.683 45.506 191 44z"/>
<path style="fill:#989898; stroke:none;" d="M90.3333 45.6667C90.2778 45.7222 90.2222 46.7778 90.6667 46.3333C90.7222 46.2778 90.7778 45.2222 90.3333 45.6667z"/>
<path style="fill:#1b1b1b; stroke:none;" d="M95 45L95 48L96 48C95.7488 46.5484 95.6848 46.2484 95 45z"/>
<path style="fill:#595959; stroke:none;" d="M96 45L97 46L96 45z"/>
<path style="fill:#878787; stroke:none;" d="M110 45L110 50L111 50C110.912 48.0359 110.779 46.769 110 45z"/>
<path style="fill:#474747; stroke:none;" d="M113 45L113 50L114 50C113.912 48.0359 113.779 46.769 113 45z"/>
<path style="fill:#272727; stroke:none;" d="M122 45C121.198 48.3679 121.01 51.5448 121 55L122 55C122.381 51.771 122.766 48.1415 122 45z"/>
<path style="fill:#b7b7b7; stroke:none;" d="M138.333 45.6667C138.278 45.7222 138.222 46.7778 138.667 46.3333C138.722 46.2778 138.778 45.2222 138.333 45.6667z"/>
<path style="fill:#383838; stroke:none;" d="M145 45L145 51L146 51C145.953 48.7472 145.874 47.0521 145 45z"/>
<path style="fill:#d8d8d8; stroke:none;" d="M147 45C146.492 47.5925 146.492 49.4075 147 52L148 52C147.981 49.4566 147.985 47.3316 147 45z"/>
<path style="fill:#989898; stroke:none;" d="M148 45L148 48L149 48C148.749 46.5484 148.685 46.2484 148 45z"/>
<path style="fill:#474747; stroke:none;" d="M149.333 45.6667C149.278 45.7222 149.222 46.7778 149.667 46.3333C149.722 46.2778 149.778 45.2222 149.333 45.6667z"/>
<path style="fill:#383838; stroke:none;" d="M154.333 45.6667C154.278 45.7222 154.222 46.7778 154.667 46.3333C154.722 46.2778 154.778 45.2222 154.333 45.6667z"/>
<path style="fill:#272727; stroke:none;" d="M161 45L161 58L162 58C162 53.7366 162.661 48.9587 161 45z"/>
<path style="fill:#878787; stroke:none;" d="M164.333 45.6667C164.278 45.7222 164.222 46.7778 164.667 46.3333C164.722 46.2778 164.778 45.2222 164.333 45.6667z"/>
<path style="fill:#383838; stroke:none;" d="M165.333 45.6667C165.278 45.7222 165.222 46.7778 165.667 46.3333C165.722 46.2778 165.778 45.2222 165.333 45.6667z"/>
<path style="fill:#272727; stroke:none;" d="M170 45L170 48L171 48C170.749 46.5485 170.685 46.2483 170 45z"/>
<path style="fill:#a7a7a7; stroke:none;" d="M171.333 45.6667C171.278 45.7222 171.222 46.7778 171.667 46.3333C171.722 46.2778 171.778 45.2222 171.333 45.6667z"/>
<path style="fill:#383838; stroke:none;" d="M174.333 45.6667C174.278 45.7222 174.222 46.7778 174.667 46.3333C174.722 46.2778 174.778 45.2222 174.333 45.6667z"/>
<path style="fill:#272727; stroke:none;" d="M86 46L86 49L87 49C86.7488 47.5484 86.6848 47.2483 86 46z"/>
<path style="fill:#777777; stroke:none;" d="M87 46L88 47L87 46z"/>
<path style="fill:#c8c8c8; stroke:none;" d="M88 46L89 47L88 46z"/>
<path style="fill:#878787; stroke:none;" d="M106 46L106 49L107 49C106.749 47.5484 106.685 47.2483 106 46z"/>
<path style="fill:#a7a7a7; stroke:none;" d="M112 46L112 50L113 50C112.826 48.3148 112.683 47.506 112 46z"/>
<path style="fill:#d8d8d8; stroke:none;" d="M119 46C119 50.1129 118.829 54.0398 120 58L123 57L123 56C119.94 52.9149 120.69 50.1146 121 46L119 46z"/>
<path style="fill:#878787; stroke:none;" d="M121 46L122 47L121 46z"/>
<path style="fill:#1b1b1b; stroke:none;" d="M130 46L130 51L131 51C130.912 49.0359 130.779 47.769 130 46z"/>
<path style="fill:#878787; stroke:none;" d="M173 46L174 47L173 46z"/>
<path style="fill:#d8d8d8; stroke:none;" d="M87 47C87.4057 49.0924 87.2167 49.0198 89 50C88.3087 48.6116 88.0154 48.1393 87 47z"/>
<path style="fill:#383838; stroke:none;" d="M90.3333 47.6667C90.2778 47.7222 90.2222 48.7778 90.6667 48.3333C90.7222 48.2778 90.7778 47.2222 90.3333 47.6667z"/>
<path style="fill:#d8d8d8; stroke:none;" d="M97.3333 47.6667C97.2778 47.7222 97.2222 48.7778 97.6667 48.3333C97.7222 48.2778 97.7778 47.2222 97.3333 47.6667z"/>
<path style="fill:#474747; stroke:none;" d="M135.333 47.6667C135.278 47.7222 135.222 48.7778 135.667 48.3333C135.722 48.2778 135.778 47.2222 135.333 47.6667z"/>
<path style="fill:#989898; stroke:none;" d="M136.333 47.6667C136.278 47.7222 136.222 48.7778 136.667 48.3333C136.722 48.2778 136.778 47.2222 136.333 47.6667M138.333 47.6667C138.278 47.7222 138.222 48.7778 138.667 48.3333C138.722 48.2778 138.778 47.2222 138.333 47.6667z"/>
<path style="fill:#1b1b1b; stroke:none;" d="M149.333 47.6667C149.278 47.7222 149.222 48.7778 149.667 48.3333C149.722 48.2778 149.778 47.2222 149.333 47.6667z"/>
<path style="fill:#595959; stroke:none;" d="M154.333 47.6667C154.278 47.7222 154.222 48.7778 154.667 48.3333C154.722 48.2778 154.778 47.2222 154.333 47.6667z"/>
<path style="fill:#d8d8d8; stroke:none;" d="M155 47L155 52L156 52C155.912 50.0359 155.779 48.769 155 47z"/>
<path style="fill:#474747; stroke:none;" d="M164.333 47.6667C164.278 47.7222 164.222 48.7778 164.667 48.3333C164.722 48.2778 164.778 47.2222 164.333 47.6667z"/>
<path style="fill:#1b1b1b; stroke:none;" d="M173 47L173 55L174 55C174.315 52.078 174.201 49.6928 173 47z"/>
<path style="fill:#989898; stroke:none;" d="M89 48L90 49L89 48z"/>
<path style="fill:#595959; stroke:none;" d="M95 48L96 49L95 48z"/>
<path style="fill:#383838; stroke:none;" d="M118 48L117 52L118 52C118.465 50.0687 118.574 49.8092 118 48z"/>
<path style="fill:#474747; stroke:none;" d="M126 48L127 49L126 48z"/>
<path style="fill:#989898; stroke:none;" d="M127 48L128 49L127 48z"/>
<path style="fill:#474747; stroke:none;" d="M148.333 48.6667C148.278 48.7222 148.222 49.7778 148.667 49.3333C148.722 49.2778 148.778 48.2222 148.333 48.6667z"/>
<path style="fill:#777777; stroke:none;" d="M170 48L170 54L171 54C170.953 51.7472 170.874 50.0521 170 48z"/>
<path style="fill:#d8d8d8; stroke:none;" d="M171 48L171 55L172 55C171.981 52.4566 171.985 50.3316 171 48z"/>
<path style="fill:#474747; stroke:none;" d="M181 48L181 53L182 53L183 48L181 48z"/>
<path style="fill:#d8d8d8; stroke:none;" d="M183 48C182.278 50.4181 182.052 52.4716 182 55L183 55L185 48L183 48z"/>
<path style="fill:#272727; stroke:none;" d="M190 48L190 51L191 51C190.749 49.5484 190.685 49.2484 190 48z"/>
<path style="fill:#777777; stroke:none;" d="M191 48L191 51L192 51C191.749 49.5485 191.685 49.2483 191 48z"/>
<path style="fill:#383838; stroke:none;" d="M85 49L86 50L85 49z"/>
<path style="fill:#777777; stroke:none;" d="M86 49L87 50L86 49z"/>
<path style="fill:#474747; stroke:none;" d="M89 49L90 50L89 49z"/>
<path style="fill:#686868; stroke:none;" d="M94 49C94.4057 51.0924 94.2167 51.0198 96 52C95.3087 50.6116 95.0154 50.1394 94 49z"/>
<path style="fill:#c8c8c8; stroke:none;" d="M95.3333 49.6667C95.2778 49.7222 95.2222 50.7778 95.6667 50.3333C95.7222 50.2778 95.7778 49.2222 95.3333 49.6667z"/>
<path style="fill:#ffffff; stroke:none;" d="M96 49C97.314 50.6179 97.8772 50.6933 100 51L100 50L96 49z"/>
<path style="fill:#c8c8c8; stroke:none;" d="M98.6667 49.3333C98.2222 49.7778 99.2778 49.7222 99.3333 49.6667C99.7778 49.2222 98.7222 49.2778 98.6667 49.3333z"/>
<path style="fill:#474747; stroke:none;" d="M106 49L106 55L107 55C106.953 52.7472 106.874 51.0521 106 49z"/>
<path style="fill:#272727; stroke:none;" d="M109 49L110 50L109 49z"/>
<path style="fill:#878787; stroke:none;" d="M126 49L126 53L127 53C126.826 51.3148 126.683 50.5061 126 49M129 49L128 54L129 54C129.436 51.949 129.622 50.9433 129 49z"/>
<path style="fill:#777777; stroke:none;" d="M135.333 49.6667C135.278 49.7222 135.222 50.7778 135.667 50.3333C135.722 50.2777 135.778 49.2222 135.333 49.6667z"/>
<path style="fill:#686868; stroke:none;" d="M138.333 49.6667C138.278 49.7222 138.222 50.7778 138.667 50.3333C138.722 50.2778 138.778 49.2222 138.333 49.6667z"/>
<path style="fill:#878787; stroke:none;" d="M154.333 49.6667C154.278 49.7222 154.222 50.7778 154.667 50.3333C154.722 50.2777 154.778 49.2222 154.333 49.6667z"/>
<path style="fill:#989898; stroke:none;" d="M156 49L156 52L157 52C156.749 50.5484 156.685 50.2484 156 49z"/>
<path style="fill:#272727; stroke:none;" d="M164 49L164 54L165 54C164.912 52.0359 164.779 50.769 164 49z"/>
<path style="fill:#a7a7a7; stroke:none;" d="M172 49C171.885 52.6714 171.46 55.2066 174 58C173.506 54.9377 173.264 51.8238 172 49z"/>
<path style="fill:#383838; stroke:none;" d="M185 49L185 52L186 52C185.749 50.5484 185.685 50.2484 185 49z"/>
<path style="fill:#a7a7a7; stroke:none;" d="M85 50L85 53L86 53C85.7488 51.5484 85.6848 51.2483 85 50z"/>
<path style="fill:#ffffff; stroke:none;" d="M86 50L84 57L85 57C86.1828 54.6719 87.2229 52.4887 88 50L86 50z"/>
<path style="fill:#a7a7a7; stroke:none;" d="M88 50L89 51L88 50z"/>
<path style="fill:#b7b7b7; stroke:none;" d="M100 50L101 51L100 50M107 50L108 64L109 64C109.013 59.3157 110.145 54.5311 109 50L107 50z"/>
<path style="fill:#595959; stroke:none;" d="M112.333 50.6667C112.278 50.7222 112.222 51.7778 112.667 51.3333C112.722 51.2778 112.778 50.2222 112.333 50.6667z"/>
<path style="fill:#989898; stroke:none;" d="M120 50L120 55L121 55C120.912 53.0359 120.779 51.769 120 50z"/>
<path style="fill:#e6e6e6; stroke:none;" d="M146 50L143 64C146.04 64.7243 148.878 64.9738 152 65L152 64L145 64C146.01 59.7709 147.48 54.127 146 50z"/>
<path style="fill:#474747; stroke:none;" d="M153 50L153 53L154 53C153.749 51.5484 153.685 51.2484 153 50z"/>
<path style="fill:#272727; stroke:none;" d="M169 50L169 53L170 53C169.749 51.5484 169.685 51.2484 169 50z"/>
<path style="fill:#777777; stroke:none;" d="M184 50L184 53L185 53C184.749 51.5484 184.685 51.2484 184 50z"/>
<path style="fill:#686868; stroke:none;" d="M88 51L89 52L88 51z"/>
<path style="fill:#878787; stroke:none;" d="M96 51L96 52L101 52C99.231 51.2211 97.9641 51.0876 96 51z"/>
<path style="fill:#ffffff; stroke:none;" d="M110 51L110 57L111 57C110.953 54.7472 110.874 53.0521 110 51z"/>
<path style="fill:#989898; stroke:none;" d="M118 51L118 56L119 56C118.912 54.0359 118.779 52.769 118 51z"/>
<path style="fill:#b7b7b7; stroke:none;" d="M135.333 51.6667C135.278 51.7223 135.222 52.7778 135.667 52.3333C135.722 52.2778 135.778 51.2222 135.333 51.6667z"/>
<path style="fill:#e6e6e6; stroke:none;" d="M136 51L136 54L137 54C136.749 52.5484 136.685 52.2484 136 51z"/>
<path style="fill:#777777; stroke:none;" d="M137.333 51.6667C137.278 51.7223 137.222 52.7778 137.667 52.3333C137.722 52.2778 137.778 51.2222 137.333 51.6667z"/>
<path style="fill:#272727; stroke:none;" d="M144 51L145 52L144 51z"/>
<path style="fill:#777777; stroke:none;" d="M145 51L146 52L145 51z"/>
<path style="fill:#b7b7b7; stroke:none;" d="M154 51C154.406 53.0924 154.217 53.0198 156 54C155.316 52.42 155.195 52.2228 154 51z"/>
<path style="fill:#595959; stroke:none;" d="M190 51L190 54L191 54C190.749 52.5484 190.685 52.2484 190 51z"/>
<path style="fill:#878787; stroke:none;" d="M87 52L88 53L87 52z"/>
<path style="fill:#383838; stroke:none;" d="M112 52C112.052 54.5283 112.278 56.5819 113 59L114 59C113.405 56.6044 113.009 54.233 112 52z"/>
<path style="fill:#474747; stroke:none;" d="M117 52L117 56L118 56C117.826 54.3148 117.683 53.506 117 52M129 52L130 53L129 52z"/>
<path style="fill:#1b1b1b; stroke:none;" d="M143 52L143 60L144 60C143.993 57.1645 144.098 54.6127 143 52z"/>
<path style="fill:#989898; stroke:none;" d="M144 52L144 57L145 57C144.912 55.0359 144.779 53.769 144 52z"/>
<path style="fill:#878787; stroke:none;" d="M147.333 52.6667C147.278 52.7223 147.222 53.7778 147.667 53.3333C147.722 53.2778 147.778 52.2222 147.333 52.6667z"/>
<path style="fill:#1b1b1b; stroke:none;" d="M152 52L152 58L153 58C152.953 55.7472 152.874 54.0521 152 52z"/>
<path style="fill:#686868; stroke:none;" d="M156.333 52.6667C156.278 52.7223 156.222 53.7778 156.667 53.3333C156.722 53.2778 156.778 52.2222 156.333 52.6667M193 52L194 53L193 52z"/>
<path style="fill:#474747; stroke:none;" d="M83 53L84 54L83 53z"/>
<path style="fill:#989898; stroke:none;" d="M84 53L85 54L84 53z"/>
<path style="fill:#595959; stroke:none;" d="M87 53L88 54L87 53z"/>
<path style="fill:#878787; stroke:none;" d="M121 56L125 54C122.855 53.8369 122.515 54.37 121 56z"/>
<path style="fill:#595959; stroke:none;" d="M125 53L126 54L125 53z"/>
<path style="fill:#d8d8d8; stroke:none;" d="M135 53C133.512 57.376 130.226 60.0882 128 64C132.314 62.2525 137.951 57.9144 135 53z"/>
<path style="fill:#383838; stroke:none;" d="M137 53L137 56L138 56C137.749 54.5484 137.685 54.2483 137 53z"/>
<path style="fill:#989898; stroke:none;" d="M153 53L153 56L154 56C153.749 54.5484 153.685 54.2484 153 53M175 53L175 54L182 54C179.668 53.0155 177.543 53.0187 175 53M183 53L184 54L183 53z"/>
<path style="fill:#e6e6e6; stroke:none;" d="M191 53L191 56L192 56C191.749 54.5484 191.685 54.2484 191 53z"/>
<path style="fill:#777777; stroke:none;" d="M192 53L191 57L192 57C192.465 55.0687 192.574 54.8092 192 53z"/>
<path style="fill:#878787; stroke:none;" d="M83 54L83 57L84 57C83.7488 55.5484 83.6848 55.2483 83 54z"/>
<path style="fill:#a7a7a7; stroke:none;" d="M86 54L87 55L86 54z"/>
<path style="fill:#ffffff; stroke:none;" d="M123 54C122.316 55.58 122.195 55.7772 121 57L121 58L125 58L125 54L123 54z"/>
<path style="fill:#b7b7b7; stroke:none;" d="M125 54L126 55L125 54z"/>
<path style="fill:#383838; stroke:none;" d="M128.333 54.6667C128.278 54.7223 128.222 55.7777 128.667 55.3333C128.722 55.2778 128.778 54.2222 128.333 54.6667z"/>
<path style="fill:#595959; stroke:none;" d="M134 54L135 55L134 54z"/>
<path style="fill:#b7b7b7; stroke:none;" d="M146.333 54.6667C146.278 54.7223 146.222 55.7777 146.667 55.3333C146.722 55.2778 146.778 54.2222 146.333 54.6667z"/>
<path style="fill:#595959; stroke:none;" d="M147.333 54.6667C147.278 54.7223 147.222 55.7778 147.667 55.3333C147.722 55.2778 147.778 54.2222 147.333 54.6667z"/>
<path style="fill:#d8d8d8; stroke:none;" d="M154 54C153.276 57.0395 153.026 59.8783 153 63L154 63C154.591 59.807 155.243 57.0467 154 54z"/>
<path style="fill:#989898; stroke:none;" d="M155.333 54.6667C155.278 54.7223 155.222 55.7777 155.667 55.3333C155.722 55.2778 155.778 54.2222 155.333 54.6667z"/>
<path style="fill:#383838; stroke:none;" d="M156.333 54.6667C156.278 54.7223 156.222 55.7778 156.667 55.3333C156.722 55.2778 156.778 54.2222 156.333 54.6667z"/>
<path style="fill:#686868; stroke:none;" d="M164 54L165 58L166 58C165.436 56.2481 165.081 55.458 164 54z"/>
<path style="fill:#272727; stroke:none;" d="M170.333 54.6667C170.278 54.7223 170.222 55.7778 170.667 55.3333C170.722 55.2778 170.778 54.2222 170.333 54.6667z"/>
<path style="fill:#777777; stroke:none;" d="M174 54L175 55L174 54z"/>
<path style="fill:#ffffff; stroke:none;" d="M173 57C176.858 58.2108 179.896 57.6416 182 54C178.173 54.0444 175.729 54.2129 173 57z"/>
<path style="fill:#595959; stroke:none;" d="M183 54L184 55L183 54z"/>
<path style="fill:#b7b7b7; stroke:none;" d="M190 54C189.782 55.6865 189.776 56.3161 190 58L191 58C190.826 56.3148 190.683 55.506 190 54z"/>
<path style="fill:#d8d8d8; stroke:none;" d="M85 55L86 56L85 55z"/>
<path style="fill:#686868; stroke:none;" d="M86 55L87 56L86 55z"/>
<path style="fill:#272727; stroke:none;" d="M93 55L93 56L101 56C98.3873 54.9023 95.8355 55.0072 93 55z"/>
<path style="fill:#383838; stroke:none;" d="M106 55L106 59L107 59C106.826 57.3148 106.683 56.506 106 55z"/>
<path style="fill:#878787; stroke:none;" d="M107 55L107 59L108 59C107.826 57.3148 107.683 56.506 107 55z"/>
<path style="fill:#c8c8c8; stroke:none;" d="M109 55L109 59L110 59C109.826 57.3148 109.683 56.5061 109 55z"/>
<path style="fill:#989898; stroke:none;" d="M127 55C125.814 56.1863 125.472 56.5838 125 58C126.548 56.7383 126.808 56.8061 127 55z"/>
<path style="fill:#383838; stroke:none;" d="M133 55L134 56L133 55z"/>
<path style="fill:#878787; stroke:none;" d="M134 55L135 56L134 55M182 55L183 56L182 55z"/>
<path style="fill:#686868; stroke:none;" d="M189 55L190 56L189 55z"/>
<path style="fill:#383838; stroke:none;" d="M60 56L60 57L83 57C76.5552 54.2956 66.9678 56 60 56z"/>
<path style="fill:#989898; stroke:none;" d="M85 56L86 57L85 56z"/>
<path style="fill:#474747; stroke:none;" d="M92 56L93 57L92 56z"/>
<path style="fill:#878787; stroke:none;" d="M93 56L93 57L101 57C98.3873 55.9023 95.8355 56.0072 93 56z"/>
<path style="fill:#595959; stroke:none;" d="M101.333 56.6667C101.278 56.7222 101.222 57.7778 101.667 57.3333C101.722 57.2778 101.778 56.2222 101.333 56.6667M118 56L119 57L118 56z"/>
<path style="fill:#474747; stroke:none;" d="M127 56L128 57L127 56z"/>
<path style="fill:#989898; stroke:none;" d="M133.333 56.6667C133.278 56.7223 133.222 57.7778 133.667 57.3333C133.722 57.2778 133.778 56.2222 133.333 56.6667z"/>
<path style="fill:#686868; stroke:none;" d="M136 56L137 57L136 56z"/>
<path style="fill:#878787; stroke:none;" d="M146.333 56.6667C146.278 56.7223 146.222 57.7777 146.667 57.3333C146.722 57.2778 146.778 56.2222 146.333 56.6667z"/>
<path style="fill:#383838; stroke:none;" d="M147.333 56.6667C147.278 56.7223 147.222 57.7778 147.667 57.3333C147.722 57.2778 147.778 56.2222 147.333 56.6667z"/>
<path style="fill:#686868; stroke:none;" d="M155 56L156 57L155 56z"/>
<path style="fill:#777777; stroke:none;" d="M162.333 56.6667C162.278 56.7223 162.222 57.7778 162.667 57.3333C162.722 57.2778 162.778 56.2222 162.333 56.6667z"/>
<path style="fill:#b7b7b7; stroke:none;" d="M164 56C164.352 63.9206 172.287 65.94 179 66L179 65C171.944 64.7895 168.528 60.9554 164 56z"/>
<path style="fill:#474747; stroke:none;" d="M171 56L172 57L171 56z"/>
<path style="fill:#d8d8d8; stroke:none;" d="M179 56L179 58C180.635 57.455 180.455 57.6352 181 56L179 56z"/>
<path style="fill:#989898; stroke:none;" d="M181 56L182 57L181 56z"/>
<path style="fill:#474747; stroke:none;" d="M188 56L189 57L188 56z"/>
<path style="fill:#383838; stroke:none;" d="M192 56L193 57L192 56z"/>
<path style="fill:#686868; stroke:none;" d="M60 57L61 58L60 57z"/>
<path style="fill:#a7a7a7; stroke:none;" d="M61 57L61 58L83 58C76.7977 55.3974 67.7023 57 61 57z"/>
<path style="fill:#e6e6e6; stroke:none;" d="M80 64C83.3679 64.802 86.5448 64.9905 90 65L90 64L82 64L85 57C81.8301 58.7031 80.9095 60.5451 80 64z"/>
<path style="fill:#383838; stroke:none;" d="M85 57L85 60L86 60C85.7488 58.5484 85.6848 58.2483 85 57M91 57L92 58L91 57z"/>
<path style="fill:#989898; stroke:none;" d="M92 57L93 58L92 57z"/>
<path style="fill:#d8d8d8; stroke:none;" d="M93 59L101 58C98.0802 56.7767 95.1634 56.5242 93 59z"/>
<path style="fill:#686868; stroke:none;" d="M119 57L120 58L119 57z"/>
<path style="fill:#474747; stroke:none;" d="M126 57L127 58L126 57z"/>
<path style="fill:#b7b7b7; stroke:none;" d="M144 57L144 60L145 60C144.749 58.5484 144.685 58.2484 144 57z"/>
<path style="fill:#1b1b1b; stroke:none;" d="M155 57L155 64L156 64C155.981 61.4567 155.985 59.3316 155 57z"/>
<path style="fill:#595959; stroke:none;" d="M172 57L173 58L172 57z"/>
<path style="fill:#777777; stroke:none;" d="M180 57L181 58L180 57M188 57L187 59C188.263 58.0286 188.392 58.3063 188 57z"/>
<path style="fill:#e6e6e6; stroke:none;" d="M189 57L185 62C187.517 60.7527 189.083 59.8947 189 57z"/>
<path style="fill:#595959; stroke:none;" d="M56 59L56 60L60 59C58.1908 58.4257 57.9312 58.5347 56 59z"/>
<path style="fill:#c8c8c8; stroke:none;" d="M55 62C61.4472 59.5296 74.1875 57.5965 80 62L81 62L82 58C73.746 58 61.0681 55.4337 55 62z"/>
<path style="fill:#b7b7b7; stroke:none;" d="M84 58L85 59L84 58z"/>
<path style="fill:#272727; stroke:none;" d="M90 58L91 59L90 58z"/>
<path style="fill:#777777; stroke:none;" d="M91 58L92 59L91 58z"/>
<path style="fill:#b7b7b7; stroke:none;" d="M92 58C90.727 60.0034 89.8276 61.7774 89 64C90.7968 64 90.5215 63.9857 92 63L91 60C92.8955 60.064 92.9417 59.7135 92 58z"/>
<path style="fill:#878787; stroke:none;" d="M94 58L94 59L99 59L99 64C100.621 59.7326 97.9793 58.31 94 58z"/>
<path style="fill:#e6e6e6; stroke:none;" d="M100 58L100 64L101 64C100.953 61.7472 100.874 60.0521 100 58z"/>
<path style="fill:#878787; stroke:none;" d="M101 58L101 64L102 64C101.953 61.7472 101.874 60.0521 101 58z"/>
<path style="fill:#a7a7a7; stroke:none;" d="M112 58C112.183 62.0508 113.949 63.8166 118 64L112 58z"/>
<path style="fill:#686868; stroke:none;" d="M120 58L121 59L120 58z"/>
<path style="fill:#989898; stroke:none;" d="M121 58L121 59L124 59C122.752 58.3152 122.452 58.2512 121 58z"/>
<path style="fill:#686868; stroke:none;" d="M124 58L125 59L124 58z"/>
<path style="fill:#474747; stroke:none;" d="M125 58L126 59L125 58z"/>
<path style="fill:#686868; stroke:none;" d="M132 58L133 59L132 58z"/>
<path style="fill:#383838; stroke:none;" d="M135.333 58.6667C135.278 58.7222 135.222 59.7778 135.667 59.3333C135.722 59.2777 135.778 58.2222 135.333 58.6667z"/>
<path style="fill:#595959; stroke:none;" d="M146.333 58.6667C146.278 58.7222 146.222 59.7778 146.667 59.3333C146.722 59.2778 146.778 58.2222 146.333 58.6667z"/>
<path style="fill:#686868; stroke:none;" d="M152.333 58.6667C152.278 58.7222 152.222 59.7778 152.667 59.3333C152.722 59.2777 152.778 58.2222 152.333 58.6667z"/>
<path style="fill:#383838; stroke:none;" d="M162 58L163 59L162 58z"/>
<path style="fill:#878787; stroke:none;" d="M163 58L164 59L163 58z"/>
<path style="fill:#777777; stroke:none;" d="M173.667 58.3333C173.222 58.7778 174.278 58.7222 174.333 58.6667C174.778 58.2222 173.722 58.2778 173.667 58.3333z"/>
<path style="fill:#989898; stroke:none;" d="M175 58L175 59L179 59C177.494 58.317 176.685 58.1741 175 58z"/>
<path style="fill:#474747; stroke:none;" d="M179 58L180 59L179 58M190 58L188 62C189.63 60.4852 190.163 60.1447 190 58z"/>
<path style="fill:#777777; stroke:none;" d="M84 59L85 60L84 59z"/>
<path style="fill:#595959; stroke:none;" d="M90 59L91 60L90 59z"/>
<path style="fill:#777777; stroke:none;" d="M93 59L94 60L93 59z"/>
<path style="fill:#010101; stroke:none;" d="M91 66L100 66C99.428 63.6228 99.1095 61.442 99 59C94.1383 59.3775 92.5599 61.5252 91 66z"/>
<path style="fill:#474747; stroke:none;" d="M107 59L107 62L108 62C107.749 60.5484 107.685 60.2483 107 59z"/>
<path style="fill:#686868; stroke:none;" d="M113 59L114 60L113 59z"/>
<path style="fill:#474747; stroke:none;" d="M131 59L132 60L131 59z"/>
<path style="fill:#a7a7a7; stroke:none;" d="M134 59L133 61C134.263 60.0287 134.392 60.3063 134 59z"/>
<path style="fill:#272727; stroke:none;" d="M163 59C163.674 61.2974 163.965 61.7741 166 63C165.041 61.4031 164.274 60.3411 163 59z"/>
<path style="fill:#686868; stroke:none;" d="M166 59L167 60L166 59z"/>
<path style="fill:#595959; stroke:none;" d="M186 59L187 60L186 59z"/>
<path style="fill:#a7a7a7; stroke:none;" d="M189 59L190 60L189 59z"/>
<path style="fill:#383838; stroke:none;" d="M54.3333 60.6667C54.2778 60.7222 54.2222 61.7778 54.6667 61.3333C54.7222 61.2778 54.7778 60.2222 54.3333 60.6667z"/>
<path style="fill:#777777; stroke:none;" d="M55 60L56 61L55 60z"/>
<path style="fill:#d8d8d8; stroke:none;" d="M57 60L57 61L80 61C73.5552 58.2956 63.9678 60 57 60z"/>
<path style="fill:#a7a7a7; stroke:none;" d="M83 60L84 61L83 60z"/>
<path style="fill:#d8d8d8; stroke:none;" d="M91.3333 60.6667C91.2778 60.7222 91.2222 61.7778 91.6667 61.3333C91.7222 61.2778 91.7778 60.2222 91.3333 60.6667z"/>
<path style="fill:#474747; stroke:none;" d="M110 60L110 66L111 66L112 60L110 60M114 60L115 61L114 60M130 60L131 61L130 60M134 60L135 61L134 60M140 62L144 61C141.954 60.2489 141.404 60.3444 140 62z"/>
<path style="fill:#272727; stroke:none;" d="M146.333 60.6667C146.278 60.7222 146.222 61.7778 146.667 61.3333C146.722 61.2778 146.778 60.2222 146.333 60.6667z"/>
<path style="fill:#595959; stroke:none;" d="M151 60L151 63L152 63C151.749 61.5484 151.685 61.2484 151 60z"/>
<path style="fill:#b7b7b7; stroke:none;" d="M152 60L152 65L145 65L145 66C149.196 65.9504 154.688 65.3723 152 60z"/>
<path style="fill:#878787; stroke:none;" d="M154 60L154 64L155 64C154.826 62.3148 154.683 61.506 154 60M164 60L165 61L164 60z"/>
<path style="fill:#777777; stroke:none;" d="M167 60L168 61L167 60z"/>
<path style="fill:#474747; stroke:none;" d="M184 60L183 62C184.263 61.0287 184.392 61.3063 184 60z"/>
<path style="fill:#878787; stroke:none;" d="M185 60L186 61L185 60z"/>
<path style="fill:#b7b7b7; stroke:none;" d="M188 60L189 61L188 60z"/>
<path style="fill:#a7a7a7; stroke:none;" d="M57 61L57 62L80 62C73.5552 59.2956 63.9678 61 57 61z"/>
<path style="fill:#777777; stroke:none;" d="M83 61L84 62L83 61z"/>
<path style="fill:#1b1b1b; stroke:none;" d="M88 61L88 63C89.6351 62.455 89.4549 62.6352 90 61L88 61z"/>
<path style="fill:#474747; stroke:none;" d="M92.3333 61.6667C92.2778 61.7222 92.2222 62.7778 92.6667 62.3333C92.7222 62.2778 92.7778 61.2222 92.3333 61.6667z"/>
<path style="fill:#010101; stroke:none;" d="M111 61L111 66L116 66L116 65C113.951 63.9098 112.642 62.6535 111 61z"/>
<path style="fill:#474747; stroke:none;" d="M115 61L116 62L115 61z"/>
<path style="fill:#595959; stroke:none;" d="M129 61L130 62L129 61z"/>
<path style="fill:#474747; stroke:none;" d="M133 61L134 62L133 61z"/>
<path style="fill:#878787; stroke:none;" d="M141 61L142 64L143 64L144 61L141 61M165 61L166 62L165 61z"/>
<path style="fill:#686868; stroke:none;" d="M168 61L169 62L168 61z"/>
<path style="fill:#989898; stroke:none;" d="M184 61L185 62L184 61z"/>
<path style="fill:#a7a7a7; stroke:none;" d="M187 61L188 62L187 61z"/>
<path style="fill:#383838; stroke:none;" d="M55 62L55 63L79 63C72.3133 60.1942 62.2326 62 55 62z"/>
<path style="fill:#686868; stroke:none;" d="M79 62L80 63L79 62z"/>
<path style="fill:#989898; stroke:none;" d="M82.3333 62.6667C82.2778 62.7222 82.2222 63.7778 82.6667 63.3333C82.7222 63.2778 82.7778 62.2222 82.3333 62.6667z"/>
<path style="fill:#474747; stroke:none;" d="M83 62C84.5398 63.8031 85.5975 63.832 88 64L88 63L83 62z"/>
<path style="fill:#878787; stroke:none;" d="M89 62L90 63L89 62z"/>
<path style="fill:#e6e6e6; stroke:none;" d="M109 62C106.692 63.7595 104.908 63.9172 102 64L102 65C104.572 64.9983 110.458 65.8687 109 62z"/>
<path style="fill:#595959; stroke:none;" d="M112 62L113 63L112 62z"/>
<path style="fill:#474747; stroke:none;" d="M116.667 62.3333C116.222 62.7778 117.278 62.7222 117.333 62.6667C117.778 62.2222 116.722 62.2778 116.667 62.3333z"/>
<path style="fill:#383838; stroke:none;" d="M125.667 62.3333C125.222 62.7778 126.278 62.7222 126.333 62.6667C126.778 62.2223 125.722 62.2778 125.667 62.3333z"/>
<path style="fill:#777777; stroke:none;" d="M127 62C125.521 62.9857 125.797 63 124 63L124 64L128 63L127 62z"/>
<path style="fill:#989898; stroke:none;" d="M131 62L132 63L131 62z"/>
<path style="fill:#a7a7a7; stroke:none;" d="M145.333 62.6667C145.278 62.7222 145.222 63.7778 145.667 63.3333C145.722 63.2778 145.778 62.2222 145.333 62.6667z"/>
<path style="fill:#878787; stroke:none;" d="M166 62L167 63L166 62M170 62L171 63L170 62z"/>
<path style="fill:#595959; stroke:none;" d="M171 62L172 63L171 62z"/>
<path style="fill:#474747; stroke:none;" d="M179.667 62.3333C179.222 62.7778 180.278 62.7222 180.333 62.6667C180.778 62.2222 179.722 62.2778 179.667 62.3333z"/>
<path style="fill:#777777; stroke:none;" d="M181 62L182 63L181 62z"/>
<path style="fill:#c8c8c8; stroke:none;" d="M182 64L186 63C183.954 62.2489 183.404 62.3444 182 64z"/>
<path style="fill:#686868; stroke:none;" d="M186 62L187 63L186 62z"/>
<path style="fill:#777777; stroke:none;" d="M88 63L89 64L88 63z"/>
<path style="fill:#686868; stroke:none;" d="M91 63L92 64L91 63z"/>
<path style="fill:#474747; stroke:none;" d="M102 63L102 64L108 64C105.948 63.1258 104.253 63.0472 102 63z"/>
<path style="fill:#686868; stroke:none;" d="M113 63L114 64L113 63M118.667 63.3333C118.222 63.7778 119.278 63.7222 119.333 63.6667C119.778 63.2222 118.722 63.2778 118.667 63.3333z"/>
<path style="fill:#474747; stroke:none;" d="M120 63L120 64L124 64C122.494 63.317 121.685 63.1741 120 63z"/>
<path style="fill:#a7a7a7; stroke:none;" d="M127.333 63.6667C127.278 63.7222 127.222 64.7778 127.667 64.3333C127.722 64.2777 127.778 63.2222 127.333 63.6667M130 63L131 64L130 63z"/>
<path style="fill:#474747; stroke:none;" d="M131 63L132 64L131 63M146 63L146 64L151 64C149.231 63.2211 147.964 63.0876 146 63z"/>
<path style="fill:#878787; stroke:none;" d="M151 63L152 64L151 63z"/>
<path style="fill:#383838; stroke:none;" d="M166 63L167 64L166 63z"/>
<path style="fill:#777777; stroke:none;" d="M167 63L168 64L167 63z"/>
<path style="fill:#686868; stroke:none;" d="M172.667 63.3333C172.222 63.7778 173.278 63.7222 173.333 63.6667C173.778 63.2222 172.722 63.2778 172.667 63.3333z"/>
<path style="fill:#474747; stroke:none;" d="M174 63L174 64L178 64C176.494 63.317 175.685 63.1741 174 63z"/>
<path style="fill:#878787; stroke:none;" d="M178 63L178 64L181 64C179.752 63.3152 179.452 63.2512 178 63z"/>
<path style="fill:#989898; stroke:none;" d="M181.333 63.6667C181.278 63.7222 181.222 64.7778 181.667 64.3333C181.722 64.2778 181.778 63.2222 181.333 63.6667M184 63L185 64L184 63z"/>
<path style="fill:#474747; stroke:none;" d="M185 63L186 64L185 63z"/>
<path style="fill:#595959; stroke:none;" d="M80 64L81 65L80 64z"/>
<path style="fill:#989898; stroke:none;" d="M81 64L82 65L81 64z"/>
<path style="fill:#878787; stroke:none;" d="M90 64L89 66C90.2627 65.0287 90.3919 65.3063 90 64z"/>
<path style="fill:#595959; stroke:none;" d="M99 64L100 65L99 64z"/>
<path style="fill:#d8d8d8; stroke:none;" d="M100.667 64.3333C100.222 64.7778 101.278 64.7222 101.333 64.6667C101.778 64.2222 100.722 64.2778 100.667 64.3333z"/>
<path style="fill:#1b1b1b; stroke:none;" d="M113.667 64.3333C113.222 64.7778 114.278 64.7222 114.333 64.6667C114.778 64.2222 113.722 64.2778 113.667 64.3333z"/>
<path style="fill:#595959; stroke:none;" d="M115 64L116 65L115 64z"/>
<path style="fill:#d8d8d8; stroke:none;" d="M117.667 64.3333C117.222 64.7778 118.278 64.7222 118.333 64.6667C118.778 64.2222 117.722 64.2778 117.667 64.3333z"/>
<path style="fill:#e6e6e6; stroke:none;" d="M119 64L119 65L125 65C122.948 64.1258 121.253 64.0472 119 64z"/>
<path style="fill:#c8c8c8; stroke:none;" d="M125.667 64.3333C125.222 64.7778 126.278 64.7222 126.333 64.6667C126.778 64.2222 125.722 64.2778 125.667 64.3333z"/>
<path style="fill:#686868; stroke:none;" d="M128 64L129 65L128 64z"/>
<path style="fill:#272727; stroke:none;" d="M129.667 64.3333C129.222 64.7778 130.278 64.7222 130.333 64.6667C130.778 64.2222 129.722 64.2778 129.667 64.3333z"/>
<path style="fill:#383838; stroke:none;" d="M143 64L144 65L143 64z"/>
<path style="fill:#a7a7a7; stroke:none;" d="M144 64L145 65L144 64z"/>
<path style="fill:#474747; stroke:none;" d="M153 64L154 65L153 64z"/>
<path style="fill:#272727; stroke:none;" d="M167.667 64.3333C167.222 64.7778 168.278 64.7222 168.333 64.6667C168.778 64.2222 167.722 64.2778 167.667 64.3333z"/>
<path style="fill:#686868; stroke:none;" d="M169 64L170 65L169 64z"/>
<path style="fill:#e6e6e6; stroke:none;" d="M172 64L172 65L179 65C176.668 64.0155 174.543 64.0187 172 64z"/>
<path style="fill:#c8c8c8; stroke:none;" d="M179.667 64.3333C179.222 64.7778 180.278 64.7222 180.333 64.6667C180.778 64.2222 179.722 64.2778 179.667 64.3333z"/>
<path style="fill:#686868; stroke:none;" d="M182 64L183 65L182 64z"/>
<path style="fill:#1b1b1b; stroke:none;" d="M183 64L183 65L186 65C184.752 64.3152 184.452 64.2512 183 64z"/>
<path style="fill:#474747; stroke:none;" d="M81 65L82 66L81 65z"/>
<path style="fill:#b7b7b7; stroke:none;" d="M82 65L82 66L89 66C86.6684 65.0155 84.5433 65.0187 82 65z"/>
<path style="fill:#383838; stroke:none;" d="M90 65L91 66L90 65z"/>
<path style="fill:#878787; stroke:none;" d="M100.667 65.3333C100.222 65.7778 101.278 65.7222 101.333 65.6667C101.778 65.2222 100.722 65.2778 100.667 65.3333z"/>
<path style="fill:#b7b7b7; stroke:none;" d="M102 65L102 66L109 66C106.668 65.0155 104.543 65.0187 102 65z"/>
<path style="fill:#777777; stroke:none;" d="M109 65L110 66L109 65z"/>
<path style="fill:#878787; stroke:none;" d="M116.667 65.3333C116.222 65.7778 117.278 65.7222 117.333 65.6667C117.778 65.2222 116.722 65.2778 116.667 65.3333z"/>
<path style="fill:#b7b7b7; stroke:none;" d="M118 65L118 66L125 66C122.668 65.0155 120.543 65.0187 118 65z"/>
<path style="fill:#878787; stroke:none;" d="M125.667 65.3333C125.222 65.7778 126.278 65.7222 126.333 65.6667C126.778 65.2222 125.722 65.2778 125.667 65.3333z"/>
<path style="fill:#595959; stroke:none;" d="M127 65L128 66L127 65z"/>
<path style="fill:#474747; stroke:none;" d="M144 65L145 66L144 65z"/>
<path style="fill:#686868; stroke:none;" d="M152 65L153 66L152 65z"/>
<path style="fill:#777777; stroke:none;" d="M170.667 65.3333C170.222 65.7778 171.278 65.7222 171.333 65.6667C171.778 65.2222 170.722 65.2778 170.667 65.3333z"/>
<path style="fill:#878787; stroke:none;" d="M179.667 65.3333C179.222 65.7778 180.278 65.7222 180.333 65.6667C180.778 65.2222 179.722 65.2778 179.667 65.3333z"/>
<path style="fill:#595959; stroke:none;" d="M181 65L182 66L181 65z"/>
</svg>
