<?xml version="1.0" encoding="UTF-8"?>
<!DOCTYPE svg PUBLIC "-//W3C//DTD SVG 1.1//EN" "http://www.w3.org/Graphics/SVG/1.1/DTD/svg11.dtd">
<!-- Creator: CorelDRAW X6 -->
<svg xmlns="http://www.w3.org/2000/svg" xml:space="preserve" width="210mm" height="297mm" version="1.1" style="shape-rendering:geometricPrecision; text-rendering:geometricPrecision; image-rendering:optimizeQuality; fill-rule:evenodd; clip-rule:evenodd"
viewBox="0 0 21000 29700"
 xmlns:xlink="http://www.w3.org/1999/xlink">
 <defs>
  <style type="text/css">
   <![CDATA[
    .str0 {stroke:#FEFEFE;stroke-width:20}
    .fil0 {fill:#211D21}
    .fil1 {fill:#FEFEFE}
   ]]>
  </style>
 </defs>
 <g id="Слой_x0020_1">
  <metadata id="CorelCorpID_0Corel-Layer"/>
  <g id="_283055992">
   <path class="fil0 str0" d="M14535 14929c6,-89 0,-107 36,-192 82,-188 84,-273 329,-374 111,-46 254,-5 324,89 124,169 67,562 -45,757 -119,207 -401,311 -578,103 -95,-111 -74,-247 -66,-383zm450 821l-322 0 -9 0c-110,-5 -214,-46 -301,-113 -378,-288 -302,-917 -84,-1229 105,-150 293,-319 474,-364 123,-30 274,-22 402,-21 120,1 216,33 313,102 219,157 254,331 254,584 0,268 -10,442 -167,671 -62,92 -112,155 -204,219 -55,39 -211,130 -272,143 -19,4 -49,7 -84,8z"/>
   <path class="fil0 str0" d="M12089 15742c108,-24 278,-174 344,-265 166,-232 218,-670 274,-962 16,-86 29,-172 48,-257 14,-62 42,-157 -21,-203 -54,-39 -335,-90 -384,145 -48,231 -135,838 -220,1016 -61,127 -210,247 -356,178 -168,-78 -135,-285 -110,-432 33,-198 127,-607 147,-775 27,-222 -266,-177 -342,-114 -74,61 -75,135 -90,223 -73,418 -339,1224 141,1414 56,22 158,35 263,40l237 0c29,-2 53,-4 69,-8z"/>
   <path class="fil0 str0" d="M10513 14507c14,35 10,190 16,246 4,37 12,228 2,252 -36,15 -228,16 -264,2 -17,-55 37,-76 50,-131 31,-130 41,-47 59,-136 17,-82 46,-64 59,-135 8,-43 12,-119 78,-98zm393 1243l-156 0c-57,-5 -105,-19 -129,-48 -76,-95 19,-282 -115,-342 -78,-35 -322,-25 -387,38 -74,71 -98,228 -158,291 -31,33 -94,53 -160,61l-133 0c-32,-4 -59,-12 -78,-23 -84,-51 20,-214 54,-279 104,-197 190,-415 292,-614 103,-201 189,-420 292,-622 76,-146 79,-189 269,-189 113,0 309,-35 346,103 14,51 15,147 22,206 9,65 23,131 32,197 19,138 14,268 40,409 26,149 26,270 41,415 16,144 44,238 44,389 -29,2 -70,6 -116,8z"/>
   <path class="fil1 str0" d="M6383 12989c-13,-28 6,-128 8,-167 6,-74 17,-91 40,-156 26,-78 59,-57 137,-57 67,0 120,-7 156,48 33,48 66,61 42,142 -10,33 -55,88 -81,113 -21,21 -93,59 -122,73 -39,20 -141,21 -180,4zm-41 -684l99 0 267 0c66,3 130,11 179,28 289,100 339,402 223,598 -52,87 -202,181 -218,223 -17,45 15,101 32,141 74,171 46,400 101,601 -590,34 -344,-45 -475,-456 -38,-120 -189,-186 -253,-69 -23,42 -69,317 -81,385 -12,66 -28,116 -98,139 -44,14 -176,14 -222,5 -136,-24 -67,-200 -45,-298 30,-130 50,-264 77,-397 26,-126 54,-264 75,-390 81,-477 70,-509 339,-510z"/>
   <path class="fil1 str0" d="M8109 13896c76,-21 262,-188 307,-260 88,-141 124,-255 160,-416 51,-225 96,-482 141,-714 12,-60 34,-140 -32,-178 -25,-14 -64,-22 -104,-23l-46 0c-32,1 -62,5 -83,12 -89,25 -110,78 -127,161 -47,226 -128,760 -216,936 -66,134 -218,212 -358,138 -143,-76 -90,-294 -67,-419 31,-161 63,-322 93,-483 27,-144 102,-332 -117,-345 -5,0 -9,0 -14,0l-35 0c-184,7 -191,136 -223,303 -30,159 -61,318 -90,477 -32,174 -65,326 -14,502 38,130 151,254 283,293 84,25 465,37 542,16z"/>
   <path class="fil1 str0" d="M9438 13896c86,-17 252,-146 308,-217 89,-111 112,-270 78,-405 -76,-306 -509,-358 -540,-497 -29,-125 212,-159 297,-148 163,21 240,79 316,-111 69,-172 -75,-207 -213,-213l-11 0 -253 0c-86,4 -170,16 -229,40 -108,45 -229,135 -284,241 -62,121 -68,299 2,417 159,266 612,296 492,479 -77,117 -266,108 -384,82 -133,-29 -259,-85 -314,96 -54,177 66,221 215,240 81,10 445,11 520,-4z"/>
   <path class="fil0 str0" d="M13426 15742c40,-124 95,-529 134,-688 28,-115 36,-232 64,-351 22,-95 9,-268 103,-311 107,-49 261,10 360,-55 68,-45 122,-223 53,-283 -56,-50 -301,-31 -384,-31 -122,0 -730,-14 -803,18 -91,39 -129,206 -81,277 62,93 252,22 336,72 86,50 10,218 -1,303 -29,232 -95,474 -124,706 -9,77 -82,263 -25,319 19,19 58,29 105,32l144 0c49,-2 93,-6 119,-8z"/>
   <path class="fil1 str0" d="M10615 13896c11,-112 42,-212 55,-326 13,-120 98,-500 123,-656 12,-75 36,-245 109,-281 86,-41 235,14 339,-41 74,-39 99,-221 17,-269 -16,-9 -63,-15 -128,-18l-633 0 -250 0c-46,3 -86,9 -110,21 -75,40 -114,205 -50,261 73,64 260,1 329,51 38,27 16,81 8,118 -19,77 -25,176 -59,322 -14,58 -17,111 -27,169 -9,54 -25,104 -37,157 -13,57 -14,113 -25,170 -58,308 -128,355 339,322z"/>
  </g>
 </g>
</svg>
